<?xml version="1.0" encoding="UTF-8"?>
<svg width="39px" height="78px" viewBox="0 0 39 78" version="1.1" xmlns="http://www.w3.org/2000/svg" xmlns:xlink="http://www.w3.org/1999/xlink">
    <!-- Generator: Sketch 46.2 (44496) - http://www.bohemiancoding.com/sketch -->
    <title>logo-white</title>
    <desc>Created with Sketch.</desc>
    <defs></defs>
    <g id="Page-1" stroke="none" stroke-width="1" fill="none" fill-rule="evenodd">
        <g id="Artboard" transform="translate(-484.000000, -809.000000)" fill="#FEFEFE">
            <g id="sdglogo-footer-mobile-ar" transform="translate(337.000000, 809.000000)">
                <g id="UNDP_Logo-TaglineWhite-Arabic-Copy" transform="translate(141.000000, 0.000000)">
                    <g id="logo-white" transform="translate(6.214560, 0.000000)">
                        <path d="M14.1983082,49.5636128 C14.1983082,53.354484 12.1986389,54.8959406 9.52523635,54.8959406 C6.99312937,54.8959406 5.08720864,53.4683671 5.08720864,49.6196576 L5.08720864,42.345489 L6.70291268,42.345489 L6.70291268,49.673909 C6.70291268,52.4218983 7.92837172,53.597046 9.57951181,53.597046 C11.3930297,53.597046 12.5843984,52.3905132 12.5843984,49.673909 L12.5843984,42.345489 L14.1983082,42.345489 L14.1983082,49.5636128 Z M0.395297396,57.8093743 L18.8978449,57.8093743 L18.8978449,39.3145855 L0.395297396,39.3145855 L0.395297396,57.8093743 Z" id="Fill-1"></path>
                        <path d="M33.9291406,54.7390151 L32.3161279,54.7390151 L28.3948384,48.4714115 C27.5345052,47.097641 26.7100565,45.6875534 26.1027097,44.3505483 L26.0448458,44.368931 C26.1390429,45.9265285 26.1578823,47.4079051 26.1578823,49.4636288 L26.1578823,54.7390151 L24.6543176,54.7390151 L24.6543176,42.3898765 L26.4144572,42.3898765 L30.3550346,48.6382008 C31.2552895,50.0837087 31.9841954,51.3691525 32.5538634,52.6514579 L32.6108302,52.6339719 C32.4641519,50.9831159 32.4291644,49.483805 32.4291644,47.5733493 L32.4291644,42.3898765 L33.9291406,42.3898765 L33.9291406,54.7390151 Z M20.0382126,57.8093743 L38.5389659,57.8093743 L38.5389659,39.3145855 L20.0382126,39.3145855 L20.0382126,57.8093743 Z" id="Fill-3"></path>
                        <path d="M32.5400927,68.1389716 C31.6985989,69.0285149 30.3251158,69.4934627 28.7672757,69.4934627 C28.289562,69.4934627 27.8517699,69.4759767 27.4830557,69.3840632 L27.4830557,74.3312511 L25.8879853,74.3312511 L25.8879853,62.1475568 C26.6581584,62.0013919 27.6665157,61.8893022 28.9489415,61.8893022 C30.5269667,61.8893022 31.6793109,62.2569562 32.4153937,62.9173883 C33.0909213,63.5011511 33.5130139,64.3969714 33.5130139,65.4985883 C33.5130139,66.6136559 33.1837727,67.4937837 32.5400927,68.1389716 L32.5400927,68.1389716 Z M20.0383472,77.4379272 L38.5391004,77.4379272 L38.5391004,58.9431384 L20.0383472,58.9431384 L20.0383472,77.4379272 Z" id="Fill-5"></path>
                        <path d="M28.8040126,68.2839259 C28.2899657,68.2839259 27.8310914,68.2467122 27.4830108,68.1556954 L27.4830108,63.3569142 C27.7584251,63.3026628 28.2899657,63.2282353 28.9852298,63.2282353 C30.7453694,63.2282353 31.9021991,64.0137594 31.9021991,65.6646155 C31.9021991,67.3311641 30.7453694,68.2839259 28.8040126,68.2839259" id="Fill-7"></path>
                        <path d="M13.3699571,72.647082 C12.1933908,73.8038469 10.2870215,74.4194432 7.88813611,74.4194432 C6.73265205,74.4194432 5.79696114,74.3871614 4.97206394,74.2768652 L4.97206394,62.1299363 C5.9651702,61.981978 7.11661725,61.8716818 8.38289502,61.8716818 C10.6750237,61.8716818 12.303736,62.3863973 13.3861052,63.3943073 C14.5030133,64.4022172 15.1431048,65.8481734 15.1431048,67.8474041 C15.1431048,69.8596371 14.5030133,71.5131833 13.3699571,72.647082 L13.3699571,72.647082 Z M0.375695434,77.4566238 L18.8786915,77.4566238 L18.8786915,58.9636284 L0.375695434,58.9636284 L0.375695434,77.4566238 Z" id="Fill-9"></path>
                        <path d="M8.19930044,73.1431907 C7.57356275,73.1431907 6.9886438,73.1431907 6.58718485,73.0674181 L6.58718485,63.302618 C7.00838033,63.2120495 7.63232378,63.1394155 8.4549782,63.1394155 C11.8272333,63.1394155 13.4797191,64.9525773 13.4599826,67.9014313 C13.4599826,71.2354252 11.6065431,73.1597799 8.19930044,73.1431907" id="Fill-11"></path>
                        <path d="M20.0724824,15.7171629 C20.1900044,15.7830716 20.2545967,15.6620148 20.3541765,15.6355617 C20.494575,15.6517026 20.6058172,15.7736561 20.6928374,15.8642245 C20.7829974,15.9054735 20.8713632,15.8503254 20.9521036,15.819837 C21.0086218,15.3979317 21.5374711,15.4589084 21.6940177,15.0625595 L21.5984749,15.0984282 C21.5576562,15.0410383 21.4567308,15.0674914 21.4621134,14.9764747 C21.5477879,14.8926316 21.6603759,14.7661945 21.7657869,14.7316709 C21.310501,14.4465149 20.8359272,14.2021595 20.3160491,14.0712388 C20.1141982,14.0246095 19.8993392,14.0192292 19.7060109,13.9492853 C19.8033479,14.2380282 19.7176734,14.6653139 19.7791258,15.0015827 L20.1420088,15.1212945 C20.2510083,14.9450896 20.483361,14.910566 20.5860807,14.7419832 C20.6515701,14.68549 20.7269277,14.7419832 20.7803061,14.8020632 C20.7964541,14.940606 20.760121,15.0760103 20.7184051,15.208276 C20.580698,15.4835682 20.2545967,15.517195 20.0724824,15.7171629" id="Fill-13"></path>
                        <path d="M23.5855846,13.7301725 L23.5627081,13.7915976 C23.0930684,14.278515 22.578573,14.7820216 22.1331554,15.2810446 C22.160966,15.341573 22.211653,15.3980662 22.2713111,15.4276578 C22.289702,15.3057043 22.3565371,15.1980983 22.3686481,15.0716612 C22.4879644,14.9044235 22.6727701,15.0102361 22.8288681,15.0465531 C23.0728834,14.9905083 23.3020962,15.1025979 23.5510456,15.0985627 C23.7354028,15.1891311 23.7511023,15.4227259 23.9184142,15.514191 C23.9641671,15.579203 23.9282825,15.656769 23.8668301,15.7074336 C23.9184142,16.0889867 24.1005285,15.6061045 24.2947539,15.6971213 C24.3750457,15.7276097 24.4773168,15.7172974 24.536975,15.8029339 C24.5674769,15.9616528 24.7612537,15.9325095 24.7720191,16.0827096 C24.755871,16.1589306 24.6751307,16.1791067 24.6222009,16.2217008 C24.6701965,16.3727976 24.4678971,16.4687463 24.536975,16.6328455 C24.8316772,16.688442 24.8428912,16.3472412 24.9792527,16.1952476 C24.903895,15.9325095 24.8478253,15.6621493 24.6966614,15.4276578 C24.5293495,15.3922375 24.4279755,15.1931663 24.2593179,15.1586427 C23.9332166,15.0295155 24.3086592,14.8273058 24.2664948,14.6345116 C24.0964915,14.3090033 23.8210772,14.0193637 23.5855846,13.7301725" id="Fill-15"></path>
                        <path d="M25.490653,19.1328478 C25.275794,19.8152494 25.0259475,20.4801651 24.5984722,21.0751369 C24.4320574,21.2881072 24.2665397,21.5844721 24.0507835,21.6947683 L24.5132463,22.1023262 C24.5370198,22.0763214 24.5240117,22.0364175 24.5293944,22.0009972 C24.5293944,21.9400205 24.558102,21.8682831 24.6348054,21.8776986 C24.8577384,21.8727667 24.8626726,22.1121901 24.99096,22.2350404 C24.963598,22.4287312 25.1327042,22.5807248 25.0757374,22.7587231 C26.3595089,21.4055771 26.9996004,19.7488924 27.1180196,17.913761 L27.1862003,17.8321597 C26.7291202,17.8774439 26.2464724,17.8460588 25.7741414,17.8523359 L25.662002,17.8169155 C25.6938496,18.1271796 25.611315,18.4275798 25.5929241,18.7324636 L25.7575447,18.9144972 C25.8064375,18.9862345 25.7889438,19.0924955 25.7234544,19.1476436 C25.6503395,19.195618 25.5601794,19.1911344 25.490653,19.1328478" id="Fill-17"></path>
                        <path d="M11.8709677,17.9545616 L11.9813128,18.8902858 C12.0261686,19.2507661 12.1845094,19.5964505 12.1741926,19.9519988 C12.2289166,19.8757778 12.1952748,19.7228876 12.3325333,19.7080918 C12.2746694,19.5964505 12.4397386,19.4996051 12.3473357,19.4027596 C12.3917429,19.1601977 12.4217963,18.9100136 12.6375524,18.7324636 C12.8972672,18.721703 12.9161066,18.3809506 13.17627,18.365258 C13.3076973,18.358981 13.3897833,18.5387728 13.4485444,18.5984044 C13.2839238,18.4029201 13.2919978,18.0760668 13.3341622,17.8518875 L13.2211257,17.9038971 C12.7492432,17.8940332 12.2562786,17.9321437 11.8077211,17.8680284 L11.8709677,17.9545616 Z" id="Fill-19"></path>
                        <path d="M20.0580388,21.2835339 C20.1908118,21.3090903 20.0970633,21.4521167 20.1939517,21.5027812 C20.402531,21.4359758 20.5622174,21.6794345 20.726838,21.5265442 C20.718764,21.2880175 20.9887956,21.3090903 21.1354739,21.2481136 C21.3655839,21.1104675 21.6248501,20.928434 21.5988338,20.6217567 L21.5611549,20.578266 C21.4037113,20.578266 21.3225224,20.6979777 21.2076916,20.7948231 C21.0632561,20.8773211 20.9914869,20.6419329 20.874862,20.6979777 C20.8811418,20.7244308 20.9067096,20.7342947 20.9273432,20.744607 C20.9573966,20.7813724 20.9668163,20.8566966 20.9273432,20.8925653 C20.7542,21.0499391 20.6734597,20.8145509 20.5097362,20.8302435 L20.5097362,20.8925653 C20.516016,20.928434 20.4998679,20.9835821 20.4491809,20.9625092 C20.3469098,20.7948231 20.1387792,20.8566966 20.0351624,20.7105317 C19.9714672,20.674663 19.9095663,20.7190505 19.8647106,20.7602995 C19.8283774,20.8369688 19.6659996,20.7499873 19.7059212,20.8831498 C19.5803251,20.928434 19.5650742,21.0638382 19.4731199,21.1463362 C19.3147791,21.1194347 19.2448041,21.2978814 19.095883,21.2942945 C19.111134,21.3247829 19.095883,21.3758958 19.1402902,21.3794826 C19.2340387,21.4207316 19.3241988,21.4288021 19.4367867,21.4153513 C19.5888477,21.172341 19.8431798,21.3758958 20.0580388,21.2835339" id="Fill-21"></path>
                        <path d="M19.1403351,25.7973384 L19.1923677,25.7211175 L19.0349241,25.7623665 C17.0518514,25.6251688 15.2970946,24.9243844 13.8487025,23.5246091 L13.833003,23.5860342 L12.7847241,24.6383317 C14.3708234,26.0121022 16.162362,26.8962652 18.2055413,27.1755925 C18.5316426,27.2307406 18.9039453,27.2011489 19.217487,27.2984427 L19.1403351,27.1755925 L19.1403351,25.7973384 Z" id="Fill-23"></path>
                        <path d="M20.9888853,20.332969 C21.1095473,20.2069803 21.3674678,20.2110155 21.3786818,20.0298787 C21.201053,20.0011837 21.1095473,20.0989259 20.9888853,20.1962197 C20.9722887,20.2347785 20.9171161,20.3056192 20.9888853,20.332969" id="Fill-25"></path>
                        <path d="M21.5609755,19.2970367 C21.5681524,19.3714642 21.5793664,19.4745866 21.6439587,19.5387019 C21.8422211,19.5091103 21.7569951,19.783954 21.939558,19.7597427 C22.0413806,19.7288059 21.9453893,19.6422727 21.9736484,19.576364 C21.9453893,19.4230254 21.7964682,19.4073329 21.6941971,19.3163161 C21.6834317,19.2867244 21.705411,19.261168 21.7184192,19.2356116 C21.6439587,19.1952593 21.6080741,19.2409919 21.5609755,19.2970367" id="Fill-27"></path>
                        <path d="M21.3296544,12.2808984 C20.8138133,12.0979682 20.2513222,12.0212989 19.6910739,11.9370075 L19.7422095,12.047752 L19.7309956,13.424661 L19.8646657,13.3991046 C20.7079538,13.5147811 21.4799212,13.7855896 22.1473747,14.3290001 L22.1828108,14.4361578 C22.4102294,14.1155815 22.7574129,13.8407377 23.0247531,13.5376474 L23.281328,13.3887923 L23.1584233,13.3376795 C22.5990721,12.8709382 21.9912767,12.5162867 21.3296544,12.2808984" id="Fill-29"></path>
                        <path d="M24.223837,17.78293 L24.3803836,17.938062 C24.536033,18.0456681 24.4319677,18.2734342 24.5983825,18.3653477 C24.7952992,18.4675734 24.867517,18.6962363 24.9567799,18.8688543 C24.9854876,18.8235701 24.9854876,18.7679736 25.0016357,18.7217927 C25.0707135,18.4415686 25.0599481,18.1277177 25.1478654,17.8519772 C24.8428463,17.8681181 24.4902801,17.8986065 24.223837,17.78293" id="Fill-31"></path>
                        <path d="M21.5741183,21.1622529 C21.7571297,21.2577533 21.9796142,21.2640303 22.1729425,21.3442865 C22.3460857,21.3895707 22.4636077,21.6047828 22.6807096,21.537529 C22.8650667,21.4357516 23.1696372,21.5985058 23.2911963,21.4057116 C23.2710112,21.2165043 23.4338376,21.079755 23.5163721,20.9178975 L23.5760303,20.9026534 C23.6783014,21.0089143 23.6738158,21.1676332 23.7186716,21.2837581 C23.8608643,21.1317646 23.9730037,20.9627334 24.1008425,20.8058079 C24.4354664,20.3179938 24.7211975,19.7943111 24.8427566,19.2356564 C24.7059466,19.2410367 24.5677909,19.2647997 24.4426433,19.3056003 C24.2946194,19.2970815 24.1156449,19.382718 23.9896003,19.2809406 C23.944296,19.2410367 23.9124484,19.3015651 23.9187282,19.3419174 C23.8666955,19.4185867 23.8160085,19.514087 23.6984865,19.4791151 C23.6074293,19.4383144 23.6074293,19.3419174 23.5760303,19.2706284 C23.5823101,19.3266732 23.562125,19.3782344 23.5509111,19.4284506 C23.4446029,19.5391951 23.4078212,19.6472495 23.3333607,19.7687547 C23.226604,19.8857762 23.0530123,19.8449756 22.9399758,19.9409243 C22.9197907,20.1857281 22.6497591,20.1332701 22.4985952,20.2112845 C22.4878298,20.2413245 22.5232659,20.2471532 22.5376197,20.2727096 C22.6107346,20.2928858 22.7058288,20.2928858 22.7574129,20.2207001 C22.9722719,20.2776416 22.9251734,20.0090748 23.0503209,19.9158163 C23.1557319,19.9010204 23.258003,19.8091069 23.3665539,19.8821894 C23.4804875,20.0175936 23.5051582,20.2157681 23.4899073,20.3942148 C23.3665539,20.5152716 23.4311462,20.7138944 23.343229,20.8564724 C23.3620684,21.0246069 23.1584233,21.0999311 23.1853367,21.2689623 C23.1202959,21.3442865 23.0054652,21.3559438 22.9049883,21.3559438 C22.5044265,21.2026052 22.0814368,21.1057598 21.6328793,21.0645108 C21.5934062,21.079755 21.5673899,21.1151753 21.5741183,21.1622529" id="Fill-33"></path>
                        <path d="M16.5681271,18.732643 C16.5187857,18.7061898 16.5125059,18.7120185 16.4712386,18.7568543 C16.446568,18.7568543 16.4156175,18.7617863 16.3954324,18.7465421 C16.3954324,18.4573508 16.0715739,18.6304172 15.9486692,18.4793204 C16.0913105,18.7420585 16.1666681,19.041562 16.3142435,19.3056452 C16.4066464,19.5392399 16.6076001,19.7230669 16.7013486,19.9521781 C16.7986856,19.7687995 16.9911168,19.6217379 17.129721,19.4531551 C17.1386922,19.3782792 17.1225441,19.3114738 17.0808283,19.2558774 C17.035524,19.147823 17.0772398,18.9971745 16.9947052,18.905261 C16.864175,18.9509936 17.0422523,19.0823626 16.984837,19.160377 C16.9301129,19.195349 16.8686606,19.147823 16.864175,19.0971584 C16.7466529,19.0783274 16.6546987,18.9756533 16.6179169,18.8680472 C16.7152539,18.8079672 16.594592,18.7819624 16.5681271,18.732643" id="Fill-35"></path>
                        <path d="M18.9243546,21.1622529 C18.958445,21.0246069 18.903721,20.8528856 18.9741445,20.7354156 C19.0248315,20.6219809 19.161193,20.6278096 19.2639127,20.6479857 C19.3244679,20.6421571 19.3621467,20.5668328 19.3244679,20.5148232 C19.1773411,20.4861283 19.2446247,20.3233742 19.1921435,20.2310123 C19.1993204,20.1807961 19.2849949,20.1911084 19.2639127,20.124303 C19.161193,20.0427017 19.3137025,19.9521333 19.2289252,19.8651517 C19.2522502,19.8485625 19.2719867,19.8189708 19.2971059,19.8005881 C18.989844,19.9297154 18.6610514,19.7423015 18.3896741,19.6216931 C18.256004,19.5441271 18.06447,19.4692512 18.0348652,19.3056003 C17.8155206,19.6611486 17.3961193,19.9871053 17.0911002,20.3179938 C17.6365461,20.765904 18.2461357,21.0438863 18.9243546,21.1622529" id="Fill-37"></path>
                        <path d="M17.7184527,18.9664619 L17.5457581,18.8799287 C17.513462,19.0063658 17.4286846,19.1171104 17.3349361,19.2099206 L17.3515327,19.2188878 C17.4739889,19.1323546 17.5614576,18.9758775 17.7184527,18.9664619" id="Fill-39"></path>
                        <path d="M19.7308161,25.2491753 C20.1076044,25.1222899 20.5453965,25.142466 20.9522382,25.0756606 C20.8719464,25.0442755 20.7885147,25.0258928 20.7270623,24.9433948 C20.4893268,24.928599 20.3762904,24.67976 20.3013813,24.4914494 C20.2645995,24.3551484 20.3578995,24.2430588 20.4139692,24.1251405 C20.3125952,23.9171022 19.9972593,24.0668539 19.8133507,23.9933231 C19.7631123,23.9520741 19.725882,23.890649 19.6563556,23.87944 L19.7308161,23.9933231 C19.7308161,24.4102965 19.7819517,24.8375822 19.7308161,25.2491753" id="Fill-41"></path>
                        <path d="M19.0203011,23.8208844 C17.7831796,23.7585626 16.7012589,23.3070656 15.7395517,22.5892436 C15.7691565,22.7111971 15.9315343,22.7892115 15.8866785,22.9403083 C15.7996584,23.0797478 15.6220296,23.0828863 15.4811826,23.0797478 C15.1891717,23.0317734 14.9752097,23.2514691 14.7033839,23.2810608 C14.4530888,23.3577301 14.3660687,23.0519496 14.1377529,23.0797478 C15.5511575,24.3127337 17.1673101,25.0852554 19.0602227,25.1870328 L19.2024154,25.2843266 L19.1405145,25.1117086 L19.1405145,23.7693232 L19.0203011,23.8208844 Z" id="Fill-43"></path>
                        <path d="M13.5281184,23.1588382 C13.3540781,23.0373331 13.2002229,22.8400553 13.0548903,22.6701275 C12.8862327,22.62574 12.7130895,22.50827 12.6260694,22.346861 C12.576728,22.2890227 12.623378,22.1899355 12.5668598,22.1482381 L12.5040617,22.2244591 C12.3255358,22.3100956 12.2627378,22.1271653 12.139833,22.0518411 C11.9814923,21.9653079 12.0586441,21.6649077 11.842888,21.7209525 C11.7634933,21.7164689 11.7370284,21.6250038 11.6863414,21.5743392 C11.4885276,21.5936187 11.437392,21.3757164 11.3306354,21.2690071 C11.3100017,21.3147397 11.3306354,21.3757164 11.2696315,21.4048597 C11.0659864,21.4519374 10.9955629,21.20265 10.8565101,21.0999759 C10.8215226,21.1147718 10.7959548,21.1578142 10.7439222,21.1466052 C10.6237088,21.0394475 10.5429684,20.8865573 10.5353429,20.7193196 C10.368031,20.5301123 10.4447343,20.2315055 10.4761334,20.0010492 C10.5066353,19.9409692 10.594104,19.9073423 10.5770588,19.8302246 C10.6237088,19.7230669 10.7362967,19.7127547 10.8430534,19.7082711 C10.8834235,19.7288956 10.9242423,19.7683511 10.9430817,19.8051165 C11.0099168,19.7634192 11.1583893,19.8091518 11.1023196,19.6611935 C11.1875455,19.5863176 11.3153844,19.5589677 11.4329065,19.5392399 C11.5136468,19.641914 11.5535684,19.759384 11.6625679,19.8539876 L11.5916958,19.7436914 C11.4687911,19.2451168 11.3732483,18.7375749 11.3454377,18.1977513 C11.3508204,18.1681596 11.2821911,18.1524671 11.3207671,18.1228754 L11.3306354,18.1376712 C11.3364666,18.0255816 11.3265983,17.9291845 11.3454377,17.8520668 L11.2090763,17.9036281 L9.79387743,17.8942125 C9.87506633,19.5186155 10.3079243,20.9986469 11.0408672,22.3576216 C11.401956,23.0265725 11.9303567,23.6318565 12.3923709,24.2586617 L13.4047651,23.2099511 L13.5281184,23.1588382 Z" id="Fill-45"></path>
                        <path d="M15.1549916,11.2904745 C14.8387586,11.5092734 14.549439,11.7930844 14.2237862,11.9867753 C14.6023688,12.2248536 14.9114249,12.6225476 15.2509829,12.9368469 L15.2864189,13.0341407 C16.153032,12.2060226 17.2040021,11.7231404 18.3388526,11.4886489 C18.6075385,11.4621958 18.8789158,11.3716274 19.1404248,11.4276722 C19.1215854,10.9447901 19.0789724,10.4403867 19.1296594,9.96198819 C17.6561481,10.0498665 16.3369405,10.4968799 15.1549916,11.2904745" id="Fill-47"></path>
                        <polygon id="Fill-49" points="15.5404819 22.3295543 15.5207453 22.294134 15.5404819 22.3573526"></polygon>
                        <path d="M14.1378426,18.6595157 C14.152645,18.5684989 14.0162836,18.5438392 14.0301888,18.4519257 C14.1275258,18.2636151 14.035123,17.9591797 14.2849695,17.8775784 C14.1073407,17.9080668 13.9494485,17.9434871 13.7969389,17.8322942 L13.8713995,17.9546961 C13.883062,18.2900683 14.0162836,18.6106446 13.9440658,18.9509487 C14.0014812,18.8541033 14.0162836,18.7222859 14.1378426,18.6595157" id="Fill-51"></path>
                        <path d="M13.8487473,12.4127158 L13.2974702,13.1112584 C12.398561,14.3446927 11.9701886,15.7736113 11.8427983,17.3285186 L13.2387092,17.3038589 L13.3701365,17.3545234 C13.3145154,17.3173096 13.3279721,17.2567812 13.3086841,17.2070135 C13.4212721,15.7579187 13.9299362,14.4679913 14.9297709,13.3887923 C14.5435629,13.0543169 14.181577,12.6996653 13.8568214,12.3167671 L13.8487473,12.4127158 Z" id="Fill-53"></path>
                        <path d="M15.3127044,13.780568 C14.6120576,14.6194468 14.1325497,15.5444104 13.9441555,16.5971562 C13.8880858,16.8406149 13.9190363,17.1244258 13.8216993,17.3553304 C14.0011223,17.2714874 14.2594914,17.3037692 14.4568567,17.3279806 C14.3429231,17.2679005 14.4384659,17.1199422 14.3707337,17.0387893 C14.3559313,16.913249 14.333952,16.7549784 14.4568567,16.6724804 C14.4438485,16.4639937 14.6654359,16.356836 14.6869667,16.1694222 C14.7425878,15.9564519 14.9861545,16.0999266 15.1036766,15.9873886 C15.1799314,15.9456913 15.1148905,15.8748506 15.1148905,15.8197025 C15.2153674,15.6811597 15.3741568,15.6874368 15.4948187,15.6103191 C15.582736,15.4785017 15.6944268,15.3363721 15.8357224,15.2561159 C16.1420872,15.2659798 16.1474699,14.8377974 16.4367894,14.8274851 C16.0398161,14.5279816 15.6630278,14.1267008 15.3127044,13.780568" id="Fill-55"></path>
                        <path d="M14.6652565,17.8774888 L14.6253349,18.1465039 C14.5638825,18.3056712 14.3660687,18.1873045 14.2759086,18.2953589 C14.2095221,18.3957912 14.2790485,18.5033973 14.3342211,18.5832051 C14.1929255,18.9100584 14.6562854,19.0122842 14.6504541,19.305959 C14.7930954,19.4888893 14.6307176,19.7525241 14.8352598,19.9161749 C14.8801156,20.2470635 14.7886098,20.6945253 15.0792751,20.9536766 L15.1313077,21.2688726 C15.1891717,21.4872232 14.8693502,21.4298333 14.9115146,21.6248693 C14.9734155,21.5934842 14.9864237,21.6755338 14.9922549,21.6948132 L14.9922549,21.6853977 C15.3842942,21.2321072 15.835543,20.7555021 16.2984543,20.3546696 L16.1055746,20.160082 C15.7444858,19.621155 15.4596518,19.0459111 15.3223932,18.4164157 L15.1757149,18.3415398 C15.1698837,18.5033973 15.0936289,18.6307311 15.1039457,18.7930369 L15.0523616,18.8540136 C14.9465021,18.84953 14.8801156,18.7621001 14.7886098,18.7065037 C14.7675276,18.6509072 14.7119065,18.5594421 14.8002723,18.5132612 C14.8500622,18.5096743 14.8846011,18.5240218 14.9218314,18.5482331 C14.9675843,18.4935334 14.9465021,18.4123805 14.9734155,18.3415398 C14.9864237,18.2182412 14.8801156,18.1070483 14.9559218,18.000339 C15.0523616,17.9909235 15.1250279,18.1070483 15.164501,18.1720603 C15.2613894,18.2025487 15.3376442,18.1227409 15.4192816,18.0868722 C15.4192816,18.000339 15.5403922,17.8828691 15.4080677,17.8322046 C15.4811826,17.6340301 15.4291499,17.4255434 15.3968538,17.2331976 C15.3425783,17.0650631 15.1550813,17.0955515 15.0169256,17.1094506 C14.6055984,17.2417164 15.0842092,17.5524289 14.9828352,17.8066481 C14.9245227,17.9546064 14.7724618,17.8169604 14.6652565,17.8774888" id="Fill-57"></path>
                        <path d="M18.1437749,21.9197546 C18.2559143,21.7995946 18.3873416,21.7211318 18.5259459,21.6695706 C18.0742485,21.7610357 17.676378,21.4373209 17.29017,21.2584258 C17.0708254,21.0952233 16.78644,20.9625092 16.6550126,20.7190505 C16.3540306,21.0853594 15.9987731,21.4660158 15.643067,21.7565521 C15.799165,21.766416 15.8866337,21.9394824 16.0198553,22.0166001 C16.7828515,22.6510274 17.7333448,22.9568079 18.6165545,23.1756069 L18.3752306,23.0617238 C18.1904249,22.8550305 17.9302616,22.6097784 17.921739,22.3214839 C18.1038533,22.2587137 18.0836682,22.0574007 18.1437749,21.9197546" id="Fill-59"></path>
                        <path d="M23.708265,23.9688876 L23.7791371,23.8706971 C24.0846048,23.631722 24.4151916,23.4075427 24.6852232,23.1134195 L24.7211078,23.1134195 C24.6587583,23.0936917 24.5816064,23.1542201 24.5134257,23.1246285 C24.3680931,23.0582714 24.3443195,22.9295925 24.3443195,22.7829793 L23.7185819,22.1368947 L23.6844915,22.040946 C23.6382901,22.1642445 23.5463358,22.2395688 23.4552786,22.3296888 C23.4602127,22.4117384 23.4301594,22.5345887 23.5279449,22.5892884 C23.7306929,22.6560938 23.9948933,22.7892563 24.0401976,23.026438 C23.9585601,23.2515139 23.5306363,23.4546204 23.7939395,23.698079 C23.8805111,23.8191358 23.6737261,23.8653168 23.708265,23.9688876" id="Fill-61"></path>
                        <path d="M19.0711227,11.9752973 C17.7788286,12.0676591 16.658332,12.6065861 15.6782339,13.4158732 C16.065339,13.6835432 16.4098311,14.1153125 16.7619487,14.4246798 C16.7866194,14.3906046 16.8135329,14.3556326 16.837755,14.3134869 C17.3217485,13.9700443 17.820993,13.6539516 18.3897638,13.5113735 C18.6418531,13.4853688 18.8934939,13.3652087 19.1567971,13.424392 C19.1016246,12.9464418 19.1016246,12.4191722 19.1567971,11.9255295 L19.0711227,11.9752973 Z" id="Fill-63"></path>
                        <path d="M19.1403351,13.9885167 C18.3230633,14.0961227 17.5703839,14.3750017 16.9715597,15.0107741 L17.0805591,15.0107741 C17.2048095,15.133176 17.4012777,15.1067228 17.493232,15.2703737 C17.539882,15.3618388 17.407109,15.3519749 17.4120431,15.4272992 C17.4389566,15.4492687 17.473944,15.4528556 17.493232,15.489621 C17.5896719,15.5227995 17.5703839,15.4335762 17.6071656,15.3923272 C17.7323131,15.2663385 17.7542925,15.5142807 17.875403,15.5142807 C17.9619746,15.4586843 18.0839822,15.4528556 18.1431918,15.549701 C18.2266235,15.4779637 18.4002152,15.5443207 18.4244373,15.4138484 C18.5845724,15.2452656 18.4971036,14.9870111 18.7303535,14.8789567 C18.811991,14.9246893 18.7249708,15.0018069 18.7559213,15.0717509 C18.9120193,15.1376596 19.0909938,14.9403818 19.217487,15.0986524 C19.1026562,14.7659703 19.1300183,14.3543772 19.1403351,13.9885167" id="Fill-65"></path>
                        <path d="M13.918812,11.6293887 L13.9443798,11.5594447 C15.4291051,10.2076438 17.1587427,9.46471376 19.1404696,9.37324863 L19.0956139,9.25219183 L19.0790173,8.03086323 L19.1216302,7.88873358 C17.0771052,7.96988647 15.260896,8.66708396 13.6505746,9.82564237 C13.3397243,10.039061 13.0661042,10.3645693 12.7494227,10.5479479 L12.7942784,10.5479479 C13.1966345,10.8411744 13.5788054,11.2644248 13.918812,11.6293887" id="Fill-67"></path>
                        <path d="M31.3630779,24.0998083 C30.6862046,24.5423381 30.0003602,24.9530345 29.3495033,25.4556444 L29.3495033,25.3973578 C30.3475437,23.7402247 29.8581675,21.4661503 30.4717941,19.6471598 L30.7005585,19.0378406 C30.5740652,20.1690492 31.0661328,21.1316749 31.0338367,22.2700572 C30.9961578,22.9569424 30.7727762,23.56671 30.4112389,24.1141557 L30.4717941,24.1141557 C30.9611704,23.4756932 31.3428928,22.7946366 31.9130093,22.1826272 C32.7971161,21.3302977 33.6969224,20.456447 33.8144445,19.2705387 C34.1140809,21.2482481 33.0056953,22.980257 31.3630779,24.0998083 L31.3630779,24.0998083 Z M29.2001337,27.1755477 C28.3267923,27.4104875 27.3915499,27.4858118 26.5397393,27.7745547 C27.9796088,26.5397753 27.899317,24.6293197 28.8601271,23.175293 C29.1651462,22.7619064 29.4190297,22.3292405 29.7751844,21.9396169 C29.1929568,23.1134195 29.4454946,24.6333549 28.7735555,25.7717372 C28.5147379,26.2214408 28.1433323,26.6608321 27.735145,27.0190706 C27.8697122,27.0118968 27.9876828,26.8962203 28.102065,26.8191027 C29.1965452,25.7318333 30.6211638,25.4265011 31.80087,24.5423381 C32.2723039,24.1652686 32.7069561,23.672971 32.9146382,23.140321 C32.6903594,24.943619 30.895681,26.6361724 29.2001337,27.1755477 L29.2001337,27.1755477 Z M28.2505375,28.9192139 C26.5343566,29.5644019 24.8123444,28.7721524 23.1692784,28.5080692 L22.8539425,28.4663718 L22.8539425,28.4569563 C23.6380209,28.278958 24.4005686,28.0458116 25.0258578,27.478638 C25.9458492,26.5958201 26.7649151,25.6878941 27.7876262,24.9889032 C27.029564,25.9600477 26.9497208,27.3418887 25.6982454,27.9677972 C25.3860494,28.1700069 24.9967015,28.2063239 24.6750858,28.3610076 C25.1326145,28.3699748 25.5488758,28.2063239 26.0032645,28.1619364 C27.6808695,27.8991983 29.6015926,28.1677651 30.7777103,26.7379498 C30.3408154,27.7333057 29.2481293,28.5672525 28.2505375,28.9192139 L28.2505375,28.9192139 Z M26.6124056,30.4938491 C25.0882073,31.0637127 23.4944825,30.4682926 22.3031139,29.5644019 C21.8218117,29.258173 21.3952335,28.8169882 20.7690473,28.8586855 C20.5456657,28.8533052 20.3249754,28.8631691 20.1338899,28.9192139 C21.2916168,29.4581409 22.3677061,30.2001742 23.3527384,31.151591 C23.1854264,31.3390049 22.9723616,31.5165548 22.7696136,31.679309 C21.8218117,30.6592933 20.7690473,29.6751464 19.5942752,29.1012475 C19.366408,29.1317359 19.1457178,29.2693819 18.9398299,29.3796781 C17.9821597,29.9858589 17.0352548,30.7637609 16.3251883,31.7142809 L15.7129074,31.211671 C16.6907627,30.2266274 17.769992,29.4581409 18.9474554,28.9089017 C17.7901771,28.5430412 17.0325635,29.5128406 16.1529423,30.0069317 C15.1257456,30.7229603 13.6508886,31.0587808 12.4079359,30.5660348 C11.7404823,30.3122639 11.0968023,29.9396779 10.6137059,29.3352906 C11.5915612,30.0069317 13.0444389,30.0786691 14.1528245,29.6415195 C15.6429324,28.9954349 17.1873158,28.1785257 18.9824428,28.5672525 C19.2636884,28.5730812 19.5382056,28.8533052 19.803303,28.6143302 C21.1355187,28.267749 22.6453632,28.5076208 23.7941189,29.1169401 L24.9796564,29.5881649 C26.0790707,29.9952744 27.5036893,29.8849782 28.4434172,29.2124404 C27.9603208,29.8172761 27.2991471,30.2521838 26.6124056,30.4938491 L26.6124056,30.4938491 Z M8.23321138,26.9056359 C9.58426651,28.4470924 11.7992434,27.9328252 13.6042387,28.3350028 C13.8567765,28.3699748 14.0913721,28.4713038 14.3627494,28.4300548 C14.1474418,28.2937538 13.8487025,28.3098947 13.6136584,28.1870445 C12.2002537,27.6880215 11.9916745,26.1586706 11.222847,25.1283427 C12.2051879,25.7780142 13.0282908,26.6563485 13.9339284,27.5059879 C14.5865795,28.0749549 15.3670696,28.3385897 16.1906211,28.5080692 C15.9932558,28.5789098 15.7330925,28.5573886 15.5204762,28.6143302 C14.0415822,28.9815358 12.3917878,29.5742657 10.821388,29.0402707 C9.79957411,28.7196944 8.74591258,27.9130974 8.23321138,26.9056359 L8.23321138,26.9056359 Z M6.06129606,23.3429791 C6.9059298,25.2534347 9.0199812,25.4103602 10.4410113,26.5751956 C10.6989319,26.8043068 10.9765889,27.0020329 11.269497,27.1401274 L11.2842994,27.1239864 C10.957301,26.8298633 10.583204,26.4944911 10.3535426,26.1133864 C9.52460837,24.9593115 9.81527362,23.3429791 9.19447006,22.1023711 C9.75965249,22.7784957 10.2719051,23.4774866 10.6137059,24.2464215 C11.1228187,25.4977901 11.3156984,26.9105678 12.4913675,27.8570526 C11.2170157,27.4391825 9.72959914,27.5571008 8.608654,26.7733701 C7.38498919,26.0214729 6.29050894,24.7454445 6.06129606,23.3429791 L6.06129606,23.3429791 Z M5.15520995,19.4790254 C5.27856326,21.1621633 7.08938981,22.0521549 7.92864086,23.4443081 C8.1264547,23.7290158 8.30004645,24.0437634 8.56469536,24.2818418 C8.52118529,24.1047402 8.35611613,23.9527467 8.29466376,23.769368 C7.99906438,23.1847085 7.89275626,22.4893045 7.96362834,21.7817947 C8.04616291,20.9231882 8.40635457,20.1237649 8.26954454,19.2189775 C9.00607592,20.8102018 8.78314286,22.7946366 9.19491862,24.5167817 C9.3016753,24.8934028 9.52146847,25.2283266 9.66231552,25.5888069 C8.14663979,24.5566856 6.08103259,23.5756772 5.40909349,21.6853977 C5.12605372,21.0334844 5.09510325,20.2259907 5.15520995,19.4790254 L5.15520995,19.4790254 Z M5.20589695,16.3777295 C5.2929171,16.0024535 5.36109784,15.6155201 5.52302709,15.2707324 C5.21217675,16.8574732 6.27974356,18.000339 6.63006695,19.3785931 C6.77764236,19.8901702 6.81487263,20.445238 7.02345186,20.9285685 C7.04363695,20.9388807 7.06023357,20.9178079 7.0736903,20.9025637 C6.55067228,19.4386731 7.30290317,18.0810435 8.0600682,16.9368326 C8.24218253,16.6265685 8.35073344,16.2808841 8.4408935,15.9266809 C8.52118529,16.5875613 8.35611613,17.3502192 8.25788205,18.035311 C8.07487059,18.9100584 7.80080197,19.7377283 7.56216939,20.587816 C7.4038286,21.1150856 7.44509589,21.7167827 7.5262848,22.2700572 L7.45003002,22.2095288 C6.89337019,21.1877197 5.79709571,20.3887448 5.47323721,19.2705387 C5.20230849,18.3809954 5.02423117,17.3502192 5.20589695,16.3777295 L5.20589695,16.3777295 Z M6.96379371,11.5950893 C6.98218457,11.584777 6.9987812,11.5650492 7.02345186,11.5690845 C6.25103588,12.7442321 6.88843606,14.2233669 6.85479425,15.5594752 L6.7529717,16.9274171 C6.76597987,16.9363843 6.76597987,16.9776332 6.80321014,16.9619407 C6.84851444,16.8117406 6.85972838,16.6480897 6.88843606,16.4898192 C7.0736903,15.3855121 8.03001485,14.6031265 8.86926589,13.8404687 C9.04868888,13.6449844 9.2025441,13.4396362 9.29629261,13.2073865 C9.23035466,13.7552806 9.05631436,14.3090033 8.82844716,14.8183386 C8.17759026,16.0889867 6.97097063,17.1300751 6.7529717,18.5832051 C6.64756069,17.1928453 5.6948246,16.1504118 5.79395581,14.6708287 C5.76255678,13.4705729 6.26000703,12.4895645 6.96379371,11.5950893 L6.96379371,11.5950893 Z M7.832201,10.618116 C8.19284121,10.1661707 8.65575253,9.85097462 9.17428498,9.71960558 C8.16906766,10.4105261 8.23365994,11.6502373 7.9133899,12.6832554 C7.8111188,13.0643601 7.63349003,13.4158732 7.54646988,13.8054967 L7.57383189,13.8270179 C7.74114383,13.3835914 8.03539754,12.9684114 8.40007477,12.6061377 C9.11821529,11.946154 10.1768109,11.5350092 10.5280315,10.5575876 C10.5123319,11.9147689 9.37748152,12.9814138 8.29466376,13.7458651 C7.84520916,14.1363853 7.41414543,14.5847438 7.16923304,15.0860087 C7.14456238,14.7461529 7.22261138,14.4000201 7.19659505,14.0346079 C7.07862443,12.8500447 6.99294995,11.4986922 7.832201,10.618116 L7.832201,10.618116 Z M11.9190082,8.33731627 C11.1717114,8.99236807 10.653179,9.82183132 10.0996591,10.594353 C9.60086314,11.2090526 8.96615431,11.6152654 8.39962621,12.1443284 C8.70554241,11.5139364 8.71675635,10.7606941 9.14916576,10.1818632 C9.76503518,9.10894128 10.9048197,8.73321684 11.9190082,8.33731627 L11.9190082,8.33731627 Z M14.8601996,8.43819694 C16.2686701,7.74279288 17.8103621,7.37110367 19.4879671,7.34106365 C23.3213393,7.34689231 26.9838112,9.59630699 28.6515479,13.1441679 C29.7087979,15.1833025 30.0102285,17.9909235 29.3243841,20.2927961 C28.6264287,23.0116421 26.338337,25.7623216 23.673457,26.8814245 C20.6735045,28.3497986 16.4099657,27.9834897 13.735666,26.0663087 C10.017573,23.5214258 8.49696318,19.1328926 9.62104823,14.801301 C10.3028556,12.2299649 12.3527633,9.63262403 14.8601996,8.43819694 L14.8601996,8.43819694 Z M29.0081511,9.26586676 C29.7554478,9.93212752 30.0909688,10.7965627 30.310762,11.692383 L30.4323211,11.9752973 C29.3495033,11.199637 28.3667139,10.1513748 27.6754868,9.04841288 L26.8308531,8.19384155 C27.5741128,8.50858923 28.3729937,8.6968998 29.0081511,9.26586676 L29.0081511,9.26586676 Z M31.6532945,11.7174911 C31.8905815,12.7854811 31.5469864,13.8270179 31.7645368,14.9048718 L31.7537714,14.913839 C31.1737866,13.7709731 29.9375622,13.2329429 29.08934,12.3169465 C28.5945811,11.7730876 28.3819648,11.1117588 28.2617514,10.4105261 C28.7493334,11.5843286 30.0604669,11.8434799 30.8140435,12.8289719 C31.0661328,13.0576347 31.1491159,13.3737275 31.3114937,13.6342238 L31.3370615,13.6077706 C30.903755,12.682807 30.7575253,11.6399251 30.4592345,10.6553298 C30.3040336,10.2271474 30.0052944,9.80569041 29.6015926,9.53622695 C30.5902133,9.73978171 31.4487523,10.7710063 31.6532945,11.7174911 L31.6532945,11.7174911 Z M32.2866577,11.9506376 C33.1896039,13.1706211 33.3878663,15.1129102 32.7298325,16.5104437 C32.48806,17.1045187 32.3135712,17.7358075 32.2175799,18.3922044 C32.1700328,18.2796664 32.1615102,18.1272245 32.1215886,18.000339 C31.7645368,16.6328455 30.4677571,15.656769 29.9330766,14.3654965 C29.7657647,13.9431428 29.6231234,13.50689 29.542383,13.0482192 C30.1107054,14.1005166 31.5146903,14.6448239 31.8964127,15.8029339 C32.0538564,16.0988505 32.0453338,16.4638144 32.1395309,16.7803555 C32.1615102,16.7803555 32.1812467,16.7655597 32.1812467,16.7440384 C32.0139348,15.5500597 32.0637246,14.2986911 32.2278967,13.1204049 C32.2175799,12.4797006 32.1561275,11.8596208 31.80087,11.3655297 C32.0287372,11.4982438 32.1323539,11.7529114 32.2866577,11.9506376 L32.2866577,11.9506376 Z M33.1330857,19.8655104 C32.5984052,20.6218913 31.9524824,21.3302977 31.458172,22.1023711 C31.5146903,21.4917068 31.5864595,20.7393612 31.3464812,20.160082 C30.9356026,18.914542 30.5731681,17.6497226 30.4592345,16.2813325 L30.4717941,15.7580981 C30.7821959,17.1551832 32.1561275,18.1178089 32.0682102,19.6834769 C32.1000578,20.0641333 31.9816386,20.3838129 31.9130093,20.719185 L31.9358858,20.7447415 L31.9986838,20.6743492 C32.2014318,19.9072078 32.3028058,19.0974723 32.6190388,18.3800987 C33.0707362,17.3502192 33.6305359,16.3077856 33.4026687,15.0622457 C34.087616,16.5324132 33.8817281,18.4935334 33.1330857,19.8655104 L33.1330857,19.8655104 Z M0.395117973,38.1553994 L38.558837,38.1553994 L38.558837,8.96717037e-05 L0.395117973,8.96717037e-05 L0.395117973,38.1553994 Z" id="Fill-69"></path>
                        <path d="M11.3553957,17.3455114 L11.3208568,17.1455435 C11.4181938,15.522934 11.9353805,14.0814614 12.8468493,12.7897405 C13.0738194,12.5301409 13.2420285,12.2059777 13.5282082,12.0113901 C13.1962756,11.7020228 12.8531292,11.3401974 12.5046,11.00079 L12.4691639,10.8622473 C11.0189776,12.4745445 10.1263482,14.3141595 9.86483922,16.4142708 C9.80787242,16.7196029 9.84734548,17.0343506 9.78499599,17.3455114 C10.2941087,17.3038141 10.8458344,17.3038141 11.3553957,17.3455114" id="Fill-71"></path>
                        <path d="M19.1920089,16.2670747 C19.040845,16.5195005 18.7865129,16.576442 18.5474318,16.6481794 C18.4805967,16.7284356 18.4971934,16.9073306 18.3388526,16.8907414 C18.2886141,17.0046244 18.1150224,17.0700848 18.1818575,17.2328389 C18.0984258,17.4054569 18.1387959,17.6287395 18.0952859,17.8174984 C17.7938552,18.0053606 17.8795297,17.5677627 17.7297115,17.4762976 L17.6763332,17.5632791 C17.6175721,17.578075 17.5763049,17.5422063 17.5341405,17.5027507 C17.4888361,17.4852647 17.4125814,17.4695722 17.3722112,17.5121663 C17.3049276,17.6242559 17.2040021,17.7148243 17.2286728,17.8681629 C17.1999651,17.9587313 17.0474556,17.9291397 17.0667436,18.0255368 C17.2358497,18.0210532 17.4170669,17.9905648 17.5798933,17.9546961 C17.6983125,17.9838394 17.7938552,17.8986513 17.9113773,17.8941677 C17.9499532,17.9143438 18.0001917,17.9546961 17.9822494,18.0156729 L18.0239652,18.0156729 C18.1038085,17.9546961 18.1387959,17.8614375 18.1038085,17.7722142 C18.1150224,17.6646082 18.2316473,17.6646082 18.3020709,17.6341198 C18.3684574,17.6646082 18.3267415,17.7296201 18.3388526,17.7829748 C18.5671683,17.8681629 18.28368,18.0349523 18.2509353,18.1569058 C18.1912772,18.2541996 18.2509353,18.4721018 18.0585041,18.4416135 C18.0239652,18.4326463 18.0001917,18.3958809 18.0091628,18.3546319 L17.9822494,18.3546319 C17.9786609,18.4380266 18.0401133,18.5483228 18.1204051,18.5832948 C18.2608036,18.4676183 18.2661863,18.2685471 18.4725227,18.2425423 C18.5770366,18.1313494 18.4254242,17.9587313 18.5842135,17.8681629 C18.8475168,17.8614375 19.1296594,17.750693 19.3404814,17.9627666 C19.3243334,18.0551284 19.2911401,18.0972741 19.3664978,18.17215 C19.3144651,18.2905166 19.2808233,18.4165054 19.1830377,18.5133508 C19.208157,18.5788112 19.188869,18.6595157 19.1296594,18.706145 C19.0605816,19.0159607 18.7039784,18.8688991 18.4971934,18.9756085 C18.8170148,19.2190671 19.2023257,19.3109806 19.6194842,19.2804922 C19.8374831,19.2706284 19.7423889,19.0011649 19.8545283,18.8792114 C19.9240547,18.5241114 20.2510531,18.7671217 20.4493155,18.6707247 C20.5246732,18.5191795 20.6018251,18.3703245 20.621113,18.1977064 C20.4946198,18.1174503 20.4443814,17.9627666 20.484303,17.8174984 C20.39818,17.6995801 20.4071511,17.4861615 20.218757,17.465537 C20.1909464,17.4256331 20.2138228,17.3722784 20.2398392,17.3453769 C20.2362507,17.2328389 20.3465959,17.1965219 20.3766492,17.1095403 C20.2613699,17.0342161 20.2914233,16.86653 20.3012915,16.7678911 C20.102132,16.8261777 20.0819469,16.5665781 19.9357172,16.5105333 C19.899384,16.3921667 19.7719937,16.3724389 19.6710683,16.3527111 C19.4261559,16.4701811 19.3871314,16.1693325 19.2023257,16.0998369 C19.1830377,16.0428954 19.1404248,15.9612942 19.2023257,15.9164583 C19.2956257,15.839789 19.4162876,15.9052493 19.5221472,15.8994207 L19.4369213,15.8545848 C19.3566295,15.763568 19.1776551,15.8196129 19.0704498,15.8545848 C19.1727209,15.9563622 19.1296594,16.1392925 19.1920089,16.2670747" id="Fill-73"></path>
                        <path d="M25.1139545,23.4198277 C24.9690704,23.69781 24.6546316,23.87536 24.4151019,24.0896754 C24.084515,24.4205639 23.5462461,24.4914046 23.3771399,24.9702515 C23.2008568,25.1312122 23.1403016,25.3858798 22.8909036,25.4768966 C22.7980522,25.721252 22.5378889,25.7064562 22.3921077,25.8822127 C21.9646324,26.2642142 21.6887695,25.6396507 21.3034587,25.5643265 L20.5247629,25.7019726 C20.2547313,25.7019726 19.9860453,25.798818 19.7308161,25.7104914 C19.7680464,26.2278971 19.7680464,26.7878969 19.7308161,27.3070961 L19.8286017,27.245671 C22.2795197,27.1403067 24.3949168,26.2099628 26.2093318,24.5622452 L25.137728,23.5399878 L25.1139545,23.4198277 Z" id="Fill-75"></path>
                        <path d="M27.6992604,17.8521117 L27.6135859,17.7906866 L27.6642729,17.9292293 C27.5844296,19.6217827 27.0196958,21.1148166 26.0508116,22.4441996 C25.8651088,22.6665854 25.6888257,22.9405325 25.4528845,23.0992514 C25.8404382,23.4032385 26.2688106,23.8610125 26.5868378,24.2125256 L26.6263109,24.1363046 C28.1837024,22.36215 29.0678092,20.3068746 29.1651462,17.9292293 L29.22615,17.8063791 L29.1507924,17.8431445 L27.6992604,17.8521117 Z" id="Fill-77"></path>
                        <path d="M25.2685722,11.9507721 C25.376226,11.9763285 25.407625,12.103214 25.4802914,12.1798833 C25.8494542,12.377161 25.945894,12.774855 26.2719953,12.9976892 C26.4554553,13.380139 26.8770994,13.6742622 26.8927989,14.1109634 C27.3337309,15.088385 27.6342644,16.1200579 27.6643177,17.2683041 L27.6257418,17.3283841 C27.670149,17.3283841 27.7105192,17.308208 27.7455066,17.2839966 L29.2122896,17.2566467 C29.1158497,17.1158622 29.1562199,16.9073755 29.1306521,16.7343091 C28.9359782,14.4727887 27.971131,12.5354316 26.4554553,10.8271856 C26.1746583,11.2029101 25.7951787,11.5539748 25.4430611,11.9149034 L25.2685722,11.9507721 Z" id="Fill-79"></path>
                        <path d="M19.7053829,11.4275377 C19.8996083,11.3598355 20.0969736,11.4427819 20.2916476,11.4472654 C21.2883423,11.6109163 22.2294159,11.9296992 23.0247083,12.5452955 C22.9309598,12.4430697 22.8138863,12.3273932 22.7923555,12.1798833 C22.8094007,12.1592588 22.8286887,12.1547752 22.8542564,12.1592588 C22.8650218,12.0005399 22.6963642,11.919387 22.6725907,11.7772573 C22.6963642,11.7485624 22.7331459,11.7171773 22.7842815,11.7319731 C22.9556304,11.8947272 23.1018602,12.0727256 23.2305962,12.2547591 C23.3431841,12.21082 23.4342413,12.2807639 23.5163273,12.340844 C23.6634541,12.4278255 23.572397,12.6165845 23.6845363,12.7183618 C23.7047214,13.0183137 24.0707443,13.1864481 24.0510078,13.4855033 C24.0536991,13.5567923 24.142065,13.5011958 24.1716698,13.5375128 L24.477586,13.9114439 C24.4210677,13.9840779 24.4677177,14.0710595 24.5296186,14.1199306 C24.6655316,14.1831491 24.7422349,14.0087376 24.8776992,14.0338457 C25.0759616,14.1463837 24.8480944,14.2782011 24.8673824,14.4010514 C24.9445343,14.4046382 25.0414227,14.340523 25.1028751,14.4158472 C25.1279943,14.5279368 25.0104723,14.5987775 24.9638223,14.6705148 C24.9638223,14.7812594 25.0557766,14.7574964 25.137414,14.7812594 C25.2289197,14.7776725 25.2849894,14.8897621 25.2612159,14.9659831 C25.5146509,15.2300662 25.1836154,15.5143255 25.3056231,15.7941013 C25.3859149,15.9756865 25.2849894,16.1536848 25.1724015,16.2917792 C25.1782328,16.5159585 24.973242,16.6522595 24.895193,16.84057 L24.6345811,16.8907862 C24.4959768,17.0279839 24.7534488,17.1970151 24.6130503,17.2839966 L25.1836154,17.2938605 L25.121266,17.2328837 C25.0414227,17.0109463 25.0602621,16.7083043 25.199315,16.5105782 C25.2849894,16.3285446 25.3056231,16.1075039 25.4693466,15.9519235 C25.5038855,15.9416112 25.5684778,15.8748058 25.601671,15.9519235 C25.6110907,16.1245415 25.5962883,16.3222676 25.5146509,16.4756062 C25.6783743,16.7083043 25.6559465,17.0136364 25.6711974,17.3037244 C26.1744789,17.2723393 26.6683407,17.2629238 27.1630996,17.2678557 L27.1177953,17.1710103 C27.041092,16.2312508 26.8473151,15.3412592 26.4557245,14.5382491 C26.3485192,14.5440777 26.2722644,14.6297142 26.1507054,14.5987775 C26.1098866,14.5839816 26.0834217,14.5440777 26.089253,14.4992419 C25.8851593,14.3046543 25.7573205,14.0513317 25.5303504,13.8764719 C25.2683928,13.902925 25.1531135,13.6016281 24.9189665,13.5720365 C24.7108359,13.4855033 24.8534771,13.1496827 24.5529436,13.2429413 C24.4058168,13.1810678 24.2613813,13.0689782 24.2326736,12.9017405 C24.2326736,12.6367606 24.181538,12.3520529 23.9442511,12.1798833 C23.7594454,12.1126295 23.6845363,12.3565365 23.4997307,12.3166326 C23.3988052,12.2650714 23.4445581,12.1337023 23.412262,12.0480659 C23.3772745,11.9709482 23.2907029,11.9149034 23.3059538,11.8126776 C23.5463806,11.4983783 23.0170828,11.5051037 23.1337078,11.1934945 C23.1018602,10.9684186 22.873993,10.8823337 22.757368,10.7056805 C21.968804,10.3496838 21.1806885,10.1066735 20.2916476,9.99861908 C20.072303,9.96723399 19.8691064,10.0138633 19.6807123,9.91298261 L19.7309507,10.008483 C19.7201853,10.4819496 19.75293,10.9841111 19.7053829,11.4275377" id="Fill-81"></path>
                        <path d="M19.9121679,8.99877959 C19.9570237,8.91717834 20.0727515,8.94632165 20.1337553,8.97232644 L20.8658011,8.6571304 C21.1600548,8.68268684 21.4848105,8.7176588 21.6597479,8.96291091 L21.6597479,8.99877959 C21.4767364,9.14942805 21.243038,9.27093321 20.9994713,9.16960419 C20.6630532,9.23640961 20.193862,9.42875541 19.924279,9.08396771 C19.9121679,9.05841128 19.8830117,9.02254259 19.9121679,8.99877959 M24.282912,9.92194978 C24.384286,9.95423159 24.477586,9.99861908 24.5134706,10.1066735 C24.4852114,10.2214533 24.6197787,10.3182987 24.5372441,10.4102122 C24.2613813,10.4819496 24.2376077,10.1721338 24.0245429,10.0950162 C23.9949381,10.0533188 23.9841727,10.0031027 23.9886583,9.94795457 C24.0846496,9.83138136 24.1761553,10.0241755 24.282912,9.92194978 M19.7053829,9.24044483 C19.7053829,9.19516062 19.7260166,9.15480836 19.7533786,9.12028475 C19.8238021,9.07813905 19.8830117,9.14046088 19.9121679,9.19022868 C19.9193449,9.2624144 19.9498468,9.38436792 19.8901886,9.42516854 C19.9498468,9.43503243 19.9821429,9.38929986 20.0350727,9.38929986 C21.1995279,9.47583305 22.2792058,9.81524045 23.2467442,10.364928 L23.2467442,10.3402683 C23.4445581,10.2416294 23.6984416,10.116089 23.9020867,10.288707 C24.146102,10.1976903 24.1918549,10.4976421 24.3896687,10.5321657 C24.6300955,10.6747437 24.9001271,10.9406203 24.9297319,11.219051 C24.973242,11.3105161 25.118126,11.3764248 25.137414,11.4728219 C25.3011375,11.1280342 25.6258931,10.8823337 25.9071387,10.5837269 L26.0789362,10.5119896 C24.5430754,9.04809903 22.717895,8.23926027 20.681444,7.96038127 C20.3580341,7.90433646 20.0005338,7.93482483 19.6910291,7.83842775 C19.7533786,8.23926027 19.7354363,8.78849945 19.7053829,9.24044483" id="Fill-83"></path>
                    </g>
                </g>
            </g>
        </g>
    </g>
</svg>