<?xml version="1.0" encoding="UTF-8"?>
<svg width="958px" height="339px" viewBox="0 0 958 339" version="1.1" xmlns="http://www.w3.org/2000/svg" xmlns:xlink="http://www.w3.org/1999/xlink">
    <!-- Generator: Sketch 46.2 (44496) - http://www.bohemiancoding.com/sketch -->
    <title>undp-sdg-logo</title>
    <desc>Created with Sketch.</desc>
    <defs>
        <polygon id="path-1" points="80.7374421 81.1892127 0 81.1892127 0 0.389321557 80.7374421 0.389321557 80.7374421 81.1892127"></polygon>
        <polygon id="path-3" points="166.612673 0.855073245 0.0842404404 0.855073245 0.0842404404 167.552492 166.612673 167.552492"></polygon>
    </defs>
    <g id="Page-1" stroke="none" stroke-width="1" fill="none" fill-rule="evenodd">
        <g id="Artboard" transform="translate(-119.000000, -622.000000)">
            <g id="undp-sdg-logo" transform="translate(119.000000, 621.000000)">
                <g id="Page-1" transform="translate(239.000000, 0.000000)">
                    <g id="Group-111" transform="translate(0.000000, 0.662618)">
                        <path d="M93.8286497,115.069975 L93.8286497,159.152304 L101.892902,159.152304 C112.983997,159.152304 120.546708,151.401999 120.546708,137.41193 L120.546708,136.906953 C120.546708,122.921275 112.983997,115.069975 101.892902,115.069975 L93.8286497,115.069975 Z M79.2091687,101.88787 L101.99409,101.88787 C122.464883,101.88787 135.67213,115.978934 135.67213,136.608358 L135.67213,137.512926 C135.67213,158.142349 122.464883,172.334408 101.99409,172.334408 L79.2091687,172.334408 L79.2091687,101.88787 Z" id="Fill-67" fill="#FFFFFF"></path>
                        <polygon id="Fill-68" fill="#FFFFFF" points="143.427978 101.88831 188.896631 101.88831 188.896631 115.070414 157.946271 115.070414 157.946271 130.268037 185.170269 130.268037 185.170269 143.450142 157.946271 143.450142 157.946271 159.152743 189.301384 159.152743 189.301384 172.330456 143.427978 172.330456"></polygon>
                        <polygon id="Fill-69" fill="#FFFFFF" points="191.719339 101.88831 207.548678 101.88831 222.467324 150.392483 237.390369 101.88831 252.819355 101.88831 229.022553 172.734438 215.516141 172.734438"></polygon>
                        <polygon id="Fill-70" fill="#FFFFFF" points="257.853243 101.88831 303.326296 101.88831 303.326296 115.070414 272.371536 115.070414 272.371536 130.268037 299.595535 130.268037 299.595535 143.450142 272.371536 143.450142 272.371536 159.152743 303.731049 159.152743 303.731049 172.330456 257.853243 172.330456"></polygon>
                        <polygon id="Fill-71" fill="#FFFFFF" points="311.485137 101.88831 326.104618 101.88831 326.104618 158.946361 354.639663 158.946361 354.639663 172.330456 311.485137 172.330456"></polygon>
                        <path d="M403.234149,137.512487 L403.234149,136.809909 C403.234149,122.920836 396.177379,114.164968 386.397329,114.164968 C376.51609,114.164968 369.560508,122.819841 369.560508,136.708914 L369.560508,137.411491 C369.560508,151.300564 376.718467,160.056433 386.498517,160.056433 C396.278567,160.056433 403.234149,151.40156 403.234149,137.512487 M354.536275,137.815473 L354.536275,136.607918 C354.536275,115.473518 367.84471,100.679877 386.498517,100.679877 C405.253511,100.679877 418.35957,115.372523 418.35957,136.405928 L418.35957,137.613482 C418.35957,158.646887 405.046736,173.541524 386.397329,173.541524 C367.642334,173.541524 354.536275,158.844487 354.536275,137.815473" id="Fill-72" fill="#FFFFFF"></path>
                        <path d="M448.998888,137.814595 C456.565998,137.814595 460.7983,133.085372 460.7983,126.542622 L460.7983,126.441626 C460.7983,119.095303 456.565998,115.068658 448.800911,115.068658 L440.837847,115.068658 L440.837847,137.814595 L448.998888,137.814595 Z M426.213967,101.886553 L449.707204,101.886553 C465.536543,101.886553 475.51457,111.046403 475.51457,126.037644 L475.51457,126.239635 C475.51457,142.442822 463.921933,150.592718 449.100076,150.895704 L440.837847,150.895704 L440.837847,172.333091 L426.213967,172.333091 L426.213967,101.886553 Z" id="Fill-73" fill="#FFFFFF"></path>
                        <polygon id="Fill-74" fill="#FFFFFF" points="481.363242 101.88831 496.68664 101.88831 512.419191 130.470028 527.944965 101.88831 543.369551 101.88831 543.369551 172.330456 529.053635 172.330456 529.053635 127.347951 512.419191 156.430256 512.115626 156.430256 495.577971 127.549942 495.577971 172.330456 481.363242 172.330456"></polygon>
                        <polygon id="Fill-75" fill="#FFFFFF" points="553.744411 101.88831 599.217464 101.88831 599.217464 115.070414 568.267104 115.070414 568.267104 130.268037 595.486703 130.268037 595.486703 143.450142 568.267104 143.450142 568.267104 159.152743 599.622217 159.152743 599.622217 172.330456 553.744411 172.330456"></polygon>
                        <polygon id="Fill-76" fill="#FFFFFF" points="607.380265 101.88831 620.789888 101.88831 647.807111 142.945165 647.807111 101.88831 662.127427 101.88831 662.127427 172.330456 649.624098 172.330456 621.696181 129.76306 621.696181 172.330456 607.380265 172.330456"></polygon>
                        <polygon id="Fill-77" fill="#FFFFFF" points="686.016618 115.374279 668.273505 115.374279 668.273505 101.889188 718.282424 101.889188 718.282424 115.374279 700.539311 115.374279 700.539311 172.331335 686.016618 172.331335"></polygon>
                        <path d="M74.0674933,68.6673857 L83.5747754,56.8596976 C88.774964,61.3825383 95.0750232,65.576046 102.818113,65.576046 C109.008185,65.576046 112.769743,62.4847063 112.769743,57.9618656 L112.769743,57.8520879 C112.769743,53.9879133 110.556803,51.5596308 99.5009028,47.3661231 C85.7877152,42.0704475 77.2747162,36.8845495 77.2747162,23.6409692 L77.2747162,23.4170228 C77.2747162,9.95388712 87.6662943,0.79403685 102.593739,0.79403685 C111.661073,0.79403685 120.508433,3.88537654 127.5872,10.2832202 L118.629854,22.4246325 C113.764026,18.4506802 108.123889,15.2495628 102.153791,15.2495628 C96.6236411,15.2495628 93.1964441,18.0115694 93.1964441,21.9811306 L93.1964441,22.0952994 C93.1964441,26.5083624 95.8493321,28.6029207 107.903915,33.5692633 C121.392729,38.8693301 128.69147,44.6085076 128.69147,56.6401422 L128.69147,56.8596976 C128.69147,71.2054458 117.745558,80.0315719 102.703726,80.0315719 C92.8664829,80.0315719 82.5804923,76.6152903 74.0674933,68.6673857" id="Fill-78" fill="#FFFFFF"></path>
                        <path d="M135.430598,49.0233271 L135.430598,1.78818359 L151.462313,1.78818359 L151.462313,49.1331048 C151.462313,60.0581803 156.662502,65.4680247 164.951127,65.4680247 C173.244152,65.4680247 178.439941,60.1723491 178.439941,49.4624379 L178.439941,1.78818359 L194.366068,1.78818359 L194.366068,48.6896029 C194.366068,69.9908655 182.641447,80.2572749 164.731153,80.2572749 C146.930846,80.2572749 135.430598,69.8810878 135.430598,49.0233271" id="Fill-79" fill="#FFFFFF"></path>
                        <path d="M199.11575,68.6673857 L208.623032,56.8596976 C213.82322,61.3825383 220.127679,65.576046 227.866369,65.576046 C234.056441,65.576046 237.817999,62.4847063 237.817999,57.9618656 L237.817999,57.8520879 C237.817999,53.9879133 235.605059,51.5596308 224.549159,47.3661231 C210.840371,42.0704475 202.322973,36.8845495 202.322973,23.6409692 L202.322973,23.4170228 C202.322973,9.95388712 212.714551,0.79403685 227.641996,0.79403685 C236.709329,0.79403685 245.561089,3.88537654 252.635457,10.2832202 L243.67811,22.4246325 C238.812282,18.4506802 233.172145,15.2495628 227.202047,15.2495628 C221.671898,15.2495628 218.2447,18.0115694 218.2447,21.9811306 L218.2447,22.0952994 C218.2447,26.5083624 220.901988,28.6029207 232.952171,33.5692633 C246.440985,38.8693301 253.739727,44.6085076 253.739727,56.6401422 L253.739727,56.8596976 C253.739727,71.2054458 242.793814,80.0315719 227.751983,80.0315719 C217.914739,80.0315719 207.633148,76.6152903 199.11575,68.6673857" id="Fill-80" fill="#FFFFFF"></path>
                        <polygon id="Fill-81" fill="#FFFFFF" points="274.63067 16.5743599 255.167359 16.5743599 255.167359 1.78510982 310.01571 1.78510982 310.01571 16.5743599 290.552398 16.5743599 290.552398 79.0422554 274.63067 79.0422554"></polygon>
                        <path d="M346.50018,48.1398363 L338.097168,22.9787902 L329.579769,48.1398363 L346.50018,48.1398363 Z M330.688439,1.34380351 L345.945845,1.34380351 L373.702181,79.044451 L357.116132,79.044451 L351.361608,62.2660292 L324.718341,62.2660292 L319.078204,79.044451 L302.936502,79.044451 L330.688439,1.34380351 Z" id="Fill-82" fill="#FFFFFF"></path>
                        <polygon id="Fill-83" fill="#FFFFFF" points="379.775227 79.0431336 395.811342 79.0431336 395.811342 1.78598804 379.775227 1.78598804"></polygon>
                        <polygon id="Fill-84" fill="#FFFFFF" points="407.749338 1.78686626 422.456809 1.78686626 452.087325 46.8132827 452.087325 1.78686626 467.789078 1.78686626 467.789078 79.0440118 454.075891 79.0440118 423.446692 32.3577568 423.446692 79.0440118 407.749338 79.0440118"></polygon>
                        <path d="M516.881586,48.1398363 L508.478574,22.9787902 L499.961175,48.1398363 L516.881586,48.1398363 Z M501.069845,1.34380351 L516.327251,1.34380351 L544.083587,79.044451 L527.493138,79.044451 L521.743014,62.2660292 L495.099747,62.2660292 L489.45961,79.044451 L473.317908,79.044451 L501.069845,1.34380351 Z" id="Fill-85" fill="#FFFFFF"></path>
                        <path d="M579.238974,46.8150391 L565.195825,46.8150391 L565.195825,64.9151843 L579.568935,64.9151843 C586.75329,64.9151843 591.289157,61.8238446 591.289157,55.8651117 L591.289157,55.755334 C591.289157,50.2357119 587.202037,46.8150391 579.238974,46.8150391 L579.238974,46.8150391 Z M587.971947,24.5213863 C587.971947,18.8963776 583.990415,15.9148156 577.136021,15.9148156 L565.195825,15.9148156 L565.195825,33.3519035 L576.361712,33.3519035 C583.44048,33.3519035 587.971947,30.4801192 587.971947,24.631164 L587.971947,24.5213863 Z M549.604058,1.7886227 L578.354678,1.7886227 C586.977664,1.7886227 594.166418,4.10273636 598.583499,8.52019052 C602.015096,12.050641 603.783688,16.2441486 603.783688,21.6539931 L603.783688,21.9833262 C603.783688,31.0333987 598.807873,35.8899637 593.277723,38.8671345 C601.570748,42.0682519 607.100898,47.1487633 607.100898,57.3010039 L607.100898,57.8542834 C607.100898,71.7609209 595.93501,79.0413772 579.128987,79.0413772 L549.604058,79.0413772 L549.604058,1.7886227 Z" id="Fill-86" fill="#FFFFFF"></path>
                        <polygon id="Fill-87" fill="#FFFFFF" points="614.615214 1.78686626 630.651328 1.78686626 630.651328 64.3601483 661.940449 64.3601483 661.940449 79.0440118 614.615214 79.0440118"></polygon>
                        <polygon id="Fill-88" fill="#FFFFFF" points="668.573549 1.78686626 718.441686 1.78686626 718.441686 16.2423922 684.495277 16.2423922 684.495277 32.9066452 714.350167 32.9066452 714.350167 47.3665622 684.495277 47.3665622 684.495277 64.5840948 718.886033 64.5840948 718.886033 79.0440118 668.573549 79.0440118"></polygon>
                        <path d="M156.16272,256.916799 L224.491086,256.916799 C223.307625,311.748559 192.98639,339.263239 152.225183,339.263239 C108.313947,339.263239 80.1572573,302.31646 80.1572573,262.616457 C80.1572573,222.920845 108.313947,185.969675 152.225183,185.969675 C200.865864,185.969675 214.25349,216.233188 219.766042,231.957744 L188.850877,233.924961 C183.536302,220.953629 172.898352,212.303147 152.225183,212.303147 C128.991515,212.303147 110.874445,231.171736 110.874445,262.616457 C110.874445,289.147529 127.610078,312.929767 154.196152,312.929767 C178.01935,312.929767 189.048853,296.028394 191.604953,282.073454 L156.16272,282.073454 L156.16272,256.916799 Z" id="Fill-89" fill="#FFFFFF"></path>
                        <polygon id="Fill-90" fill="#FFFFFF" points="516.434598 189.129077 545.889135 189.129077 545.889135 309.07657 602.651261 309.07657 602.651261 336.520992 516.434598 336.520992"></polygon>
                        <path d="M685.312261,227.933294 C685.312261,217.741534 675.497015,211.471032 663.710801,211.471032 C648.981333,211.471032 640.142772,217.939134 640.142772,227.735694 C640.142772,237.927455 649.966817,242.832322 657.230363,245.181565 L684.326777,253.810091 C703.970467,260.076201 717.912428,271.444779 717.912428,294.181933 C717.912428,312.216212 704.947152,339.265434 664.106755,339.265434 C612.848382,339.265434 608.132136,306.14331 608.132136,293.005117 L637.591072,292.421099 C637.591072,308.101744 649.966817,314.179037 664.300332,314.179037 C674.313554,314.179037 688.453492,309.27417 688.453492,297.909984 C688.453492,290.067466 685.118684,285.952998 670.582793,280.657322 L638.37418,269.095536 C622.078496,263.215843 610.688236,248.905224 610.688236,232.245362 C610.688236,213.429466 623.649112,186.380244 661.942209,186.380244 C707.507651,186.380244 714.766798,216.564717 714.766798,227.344886 L685.312261,227.933294 Z" id="Fill-91" fill="#FFFFFF"></path>
                        <path d="M271.57611,244.498308 C273.388696,241.424533 275.588438,238.605442 278.109341,236.111293 L256.68826,212.66717 C251.303293,217.809157 246.705834,223.76789 243.089459,230.332595 L271.57611,244.498308 Z" id="Fill-92" fill="#FFFFFF"></path>
                        <path d="M324.086135,227.937246 C327.328554,229.421441 330.346599,231.314008 333.069879,233.553473 L354.548153,210.144479 C348.890419,205.279132 342.475973,201.261268 335.511592,198.292879 L324.086135,227.937246 Z" id="Fill-93" fill="#FFFFFF"></path>
                        <path d="M373.275431,234.987169 L344.806379,249.152882 C346.170219,252.31448 347.138105,255.682459 347.661643,259.190954 L379.32912,256.205001 C378.39203,248.722554 376.315474,241.587004 373.275431,234.987169" id="Fill-94" fill="#FFFFFF"></path>
                        <path d="M342.766779,245.042806 L371.231432,230.877093 C367.703047,224.338734 363.206775,218.401956 357.927396,213.255578 L336.449122,236.65579 C338.895234,239.163113 341.024584,241.982204 342.766779,245.042806" id="Fill-95" fill="#FFFFFF"></path>
                        <path d="M265.917495,265.236192 C265.917495,264.59509 265.939492,263.958379 265.970289,263.321669 L234.294013,260.493796 C234.192825,262.05703 234.131233,263.64222 234.131233,265.236192 C234.131233,271.300311 234.887944,277.193177 236.291379,282.822577 L266.885381,274.062318 C266.256255,271.21688 265.917495,268.266056 265.917495,265.236192" id="Fill-96" fill="#FFFFFF"></path>
                        <path d="M338.779968,291.222327 C336.527432,293.953596 333.927338,296.395052 331.054476,298.472045 L347.781309,325.503703 C353.98458,321.305804 359.51033,316.176991 364.160583,310.323645 L338.779968,291.222327 Z" id="Fill-97" fill="#FFFFFF"></path>
                        <path d="M348.102911,265.236192 C348.102911,268.230927 347.781749,271.151014 347.157023,273.956931 L377.746626,282.730364 C379.145661,277.12292 379.889174,271.265182 379.889174,265.236192 C379.889174,263.734433 379.83638,262.250239 379.743991,260.770435 L348.072115,263.756389 C348.089713,264.248193 348.102911,264.744388 348.102911,265.236192" id="Fill-98" fill="#FFFFFF"></path>
                        <path d="M275.756498,291.826982 L250.437475,311.029296 C255.144922,316.816775 260.723466,321.862158 266.970731,325.976626 L283.693165,298.984488 C280.749911,296.947014 278.075025,294.536296 275.756498,291.826982" id="Fill-99" fill="#FFFFFF"></path>
                        <path d="M266.433114,258.761065 C267.000648,255.191094 268.034526,251.774813 269.464358,248.578086 L241.008504,234.425547 C237.862874,241.104421 235.711527,248.332184 234.726043,255.924409 L266.433114,258.761065 Z" id="Fill-100" fill="#FFFFFF"></path>
                        <path d="M343.888207,327.946476 L327.187771,300.954338 C324.156527,302.662479 320.883312,304.006158 317.438517,304.906335 L323.333824,336.131501 C330.667761,334.445315 337.579349,331.656962 343.888207,327.946476" id="Fill-101" fill="#FFFFFF"></path>
                        <path d="M345.941885,278.379216 C344.833216,281.624244 343.332992,284.689237 341.494008,287.51711 L366.896622,306.640384 C371.018937,300.721171 374.278953,294.165247 376.505092,287.143866 L345.941885,278.379216 Z" id="Fill-102" fill="#FFFFFF"></path>
                        <path d="M312.936966,305.819686 C311.005593,306.096325 309.021427,306.250014 307.010863,306.250014 C305.391853,306.250014 303.794841,306.149019 302.224226,305.964592 L296.337718,337.194149 C299.826508,337.703517 303.385689,337.971375 307.010863,337.971375 C311.03199,337.971375 314.978326,337.642042 318.823474,337.014113 L312.936966,305.819686 Z" id="Fill-103" fill="#FFFFFF"></path>
                        <path d="M309.637354,224.305361 C313.170139,224.533699 316.575338,225.201147 319.808958,226.263795 L331.230015,196.628211 C324.432815,194.230666 317.182467,192.812338 309.637354,192.548872 L309.637354,224.305361 Z" id="Fill-104" fill="#FFFFFF"></path>
                        <path d="M297.698038,305.184731 C294.134457,304.359203 290.751255,303.068218 287.610024,301.377641 L270.878792,328.387344 C277.315235,332.067092 284.354407,334.789578 291.81593,336.379159 L297.698038,305.184731 Z" id="Fill-105" fill="#FFFFFF"></path>
                        <path d="M294.660195,226.119328 C297.959807,225.078635 301.439798,224.441925 305.038575,224.275063 L305.038575,192.527355 C297.392274,192.724955 290.045138,194.116936 283.159948,196.505699 L294.660195,226.119328 Z" id="Fill-106" fill="#FFFFFF"></path>
                        <path d="M272.968106,288.177972 C270.948743,285.200801 269.303337,281.942599 268.119876,278.478016 L237.55227,287.233884 C239.866398,294.509949 243.297995,301.29421 247.649083,307.380285 L272.968106,288.177972 Z" id="Fill-107" fill="#FFFFFF"></path>
                        <path d="M281.552377,233.06606 C284.236061,230.945155 287.192513,229.149192 290.36454,227.744038 L278.868692,198.143582 C272.018698,201.010975 265.709839,204.901496 260.118097,209.604372 L281.552377,233.06606 Z" id="Fill-108" fill="#FFFFFF"></path>
                        <path d="M441.059141,223.035892 L440.663188,223.035892 L421.749812,281.051205 L460.170494,281.051205 L441.059141,223.035892 Z M468.133558,305.290118 L413.395194,305.290118 L403.637141,336.484546 L371.393333,336.484546 L425.93372,187.077113 L457.385622,187.077113 L511.134102,336.484546 L478.283164,336.484546 L468.133558,305.290118 Z" id="Fill-109" fill="#FFFFFF"></path>
                        <path d="M0.245053603,0.487537546 L0.245053603,338.89702" id="Stroke-110" stroke="#FFFFFF" stroke-width="0.5"></path>
                    </g>
                </g>
                <g id="Page-1">
                    <path d="M146.414273,240.312705 L139.376686,240.312705 L122.265347,212.925367 C118.509627,206.922723 114.916246,200.761999 112.261794,194.921826 L112.011706,195.005257 C112.424133,201.802692 112.503108,208.279575 112.503108,217.25939 L112.503108,240.312705 L105.943761,240.312705 L105.943761,186.350384 L113.621926,186.350384 L130.816629,213.654291 C134.747849,219.973095 137.928804,225.58493 140.412142,231.183592 L140.657843,231.108943 C140.021652,223.898745 139.868089,217.351603 139.868089,209.004108 L139.868089,186.350384 L146.414273,186.350384 L146.414273,240.312705 Z M85.796256,253.723147 L166.526678,253.723147 L166.526678,172.917986 L85.796256,172.917986 L85.796256,253.723147 Z" id="Fill-1" fill="#FEFEFE"></path>
                    <path d="M60.3174716,217.697623 C60.3174716,234.256489 51.5906884,240.996839 39.924265,240.996839 C28.8764822,240.996839 20.5621262,234.757075 20.5621262,217.939134 L20.5621262,186.156297 L27.6084881,186.156297 L27.6084881,218.176253 C27.6084881,230.185932 32.9568785,235.319137 40.1611912,235.319137 C48.0762826,235.319137 53.2754972,230.045417 53.2754972,218.176253 L53.2754972,186.156297 L60.3174716,186.156297 L60.3174716,217.697623 Z M0.0855566972,253.72666 L80.8203662,253.72666 L80.8203662,172.921499 L0.0855566972,172.921499 L0.0855566972,253.72666 Z" id="Fill-3" fill="#FEFEFE"></path>
                    <path d="M140.352471,298.851437 C136.680114,302.746349 130.686758,304.77065 123.890485,304.77065 C121.806412,304.77065 119.897839,304.69161 118.287618,304.29641 L118.287618,325.909442 L111.329007,325.909442 L111.329007,272.676045 C114.685462,272.034944 119.086148,271.547531 124.680239,271.547531 C131.56865,271.547531 136.596752,273.154676 139.808418,276.039634 C142.756834,278.590867 144.595206,282.503344 144.595206,287.315998 C144.595206,292.190127 143.160486,296.032346 140.352471,298.851437 L140.352471,298.851437 Z M85.798011,339.482355 L166.528433,339.482355 L166.528433,258.677194 L85.798011,258.677194 L85.798011,339.482355 Z" id="Fill-5" fill="#FEFEFE"></path>
                    <path d="M124.841261,277.39956 C121.809483,277.39956 119.488483,277.724502 118.286302,277.961621 L118.286302,298.933551 C119.804385,299.32875 121.809483,299.48683 124.04712,299.48683 C132.519426,299.48683 137.569465,295.328452 137.569465,288.047995 C137.569465,280.829015 132.519426,277.39956 124.841261,277.39956" id="Fill-7" fill="#FEFEFE"></path>
                    <g id="Group-11" transform="translate(0.000000, 258.372182)">
                        <mask id="mask-2" fill="white">
                            <use xlink:href="#path-1"></use>
                        </mask>
                        <g id="Clip-10"></g>
                        <path d="M56.7025914,60.1786415 C51.5691896,65.2284151 43.2504461,67.9245551 32.7818164,67.9245551 C27.7405525,67.9245551 23.6557687,67.7796486 20.0579999,67.305409 L20.0579999,14.2300924 C24.388485,13.5802085 29.4121988,13.0971867 34.9404777,13.0971867 C44.9396424,13.0971867 52.0518171,15.3498249 56.7727918,19.7497146 C61.6473298,24.1583865 64.4377943,30.4727991 64.4377943,39.206712 C64.4377943,48.0021003 61.6473298,55.2254722 56.7025914,60.1786415 L56.7025914,60.1786415 Z M-0.00175500917,81.1900909 L80.7374421,81.1900909 L80.7374421,0.389321557 L-0.00175500917,0.389321557 L-0.00175500917,81.1900909 Z" id="Fill-9" fill="#FEFEFE" mask="url(#mask-2)"></path>
                    </g>
                    <path d="M35.2555018,277.012703 C31.666508,277.012703 28.9418563,277.328863 27.1034842,277.724062 L27.1034842,320.383672 C28.8584934,320.717396 31.4076442,320.717396 34.141071,320.717396 C49.0059987,320.787654 57.0922034,312.383074 57.0922034,297.81777 C57.1799539,284.934261 49.9712537,277.012703 35.2555018,277.012703" id="Fill-12" fill="#FEFEFE"></path>
                    <g id="Group-16" transform="translate(0.000000, 0.296839)">
                        <mask id="mask-4" fill="white">
                            <use xlink:href="#path-3"></use>
                        </mask>
                        <g id="Clip-15"></g>
                        <path d="M135.215559,106.147245 C132.262756,108.074941 129.270466,109.870904 126.431738,112.070849 L126.431738,111.811773 C130.788549,104.570837 128.647438,94.638152 131.328214,86.6902474 L132.328569,84.0292362 C131.775741,88.9736233 133.925628,93.1759132 133.780839,98.151038 C133.618501,101.154556 132.640083,103.815567 131.064963,106.20872 L131.328214,106.20872 C133.464938,103.415976 135.127809,100.443196 137.615534,97.7690116 C141.476555,94.0453524 145.403388,90.2250889 145.916728,85.0479732 C147.219822,93.6852816 142.384772,101.255551 135.215559,106.147245 L135.215559,106.147245 Z M125.777998,119.584034 C121.969628,120.607162 117.889231,120.940886 114.172999,122.201134 C120.455932,116.808854 120.10493,108.456967 124.295015,102.107426 C125.624434,100.302681 126.734478,98.4101133 128.287661,96.7107547 C125.747285,101.835177 126.848553,108.478923 123.917688,113.449657 C122.790094,115.416873 121.166711,117.335787 119.385377,118.899021 C119.973305,118.872674 120.486645,118.367697 120.99121,118.029582 C125.760447,113.274012 131.981955,111.943507 137.128519,108.074941 C139.186268,106.428276 141.081678,104.281024 141.985507,101.953737 C141.011477,109.831384 133.175361,117.226009 125.777998,119.584034 L125.777998,119.584034 Z M121.631788,127.202605 C114.146674,130.026087 106.630847,126.561504 99.4616349,125.406642 L98.0883403,125.226607 L98.0883403,125.182696 C101.506221,124.40547 104.831963,123.382342 107.56539,120.910148 C111.579973,117.050365 115.151417,113.080804 119.613528,110.033375 C116.305335,114.275185 115.958721,120.312958 110.500643,123.048618 C109.136123,123.93123 107.438152,124.084919 106.034144,124.765541 C108.030467,124.805061 109.846902,124.084919 111.825675,123.89171 C119.14845,122.745631 127.533007,123.918057 132.662021,117.673902 C130.753449,122.021098 125.988599,125.670109 121.631788,127.202605 L121.631788,127.202605 Z M114.488901,134.083471 C107.833029,136.573229 100.883192,133.969302 95.6839777,130.026087 C93.5867417,128.682409 91.7220445,126.754712 88.9886177,126.939139 C88.0102001,126.912792 87.0537201,126.956703 86.2157032,127.202605 C91.2701296,129.556239 95.9647792,132.796876 100.260164,136.955255 C99.5318353,137.776392 98.6016804,138.549227 97.7197883,139.260587 C93.5867417,134.803612 88.9886177,130.509109 83.8639909,128.001787 C82.8724107,128.13352 81.9071557,128.730711 81.0077135,129.213733 C76.8264041,131.86157 72.697745,135.264679 69.5957663,139.414275 L66.9281524,137.218722 C71.1884371,132.911045 75.9006368,129.556239 81.0428137,127.154303 C75.9883872,125.560331 72.6801949,129.79775 68.8454999,131.953784 C64.3614514,135.080252 57.9293428,136.551273 52.5063645,134.395239 C49.5930492,133.28868 46.7850346,131.663971 44.674636,129.020524 C48.9393083,131.953784 55.279279,132.269943 60.1187168,130.359812 C66.6210258,127.536329 73.360261,123.961968 81.1919894,125.670109 C82.4204959,125.692064 83.6182896,126.912792 84.7765957,125.8721 C90.585676,124.357168 97.1757355,125.406642 102.186287,128.067653 L107.363564,130.131474 C112.159126,131.905481 118.371859,131.426851 122.47858,128.484809 C120.368182,131.123864 117.485579,133.020823 114.488901,134.083471 L114.488901,134.083471 Z M34.2849817,118.407217 C40.1818126,125.138785 49.8475256,122.890538 57.7231292,124.646981 C58.8243975,124.805061 59.8510779,125.244171 61.0357091,125.068527 C60.0967792,124.471336 58.7892973,124.537203 57.7670045,124.001488 C51.5981472,121.823499 50.68993,115.140233 47.3334749,110.639348 C51.6200848,113.476003 55.2134661,117.318222 59.1666243,121.028708 C62.0097392,123.509684 65.4188445,124.664545 69.0122258,125.406642 C68.1522713,125.71402 67.0159028,125.621807 66.085748,125.8721 C59.6317017,127.474854 52.4361641,130.065607 45.5784658,127.729538 C41.12513,126.328775 36.5226184,122.807107 34.2849817,118.407217 L34.2849817,118.407217 Z M24.8123197,102.83635 C28.497839,111.183845 37.7247997,111.873249 43.9199821,116.962543 C45.0475755,117.959324 46.2585318,118.824372 47.535301,119.430345 L47.6011138,119.360087 C46.1751689,118.069102 44.5386228,116.606863 43.5382676,114.947024 C39.9229487,109.901642 41.1909428,102.83635 38.4838412,97.4221141 C40.9496291,100.372938 43.1872658,103.429149 44.674636,106.783955 C46.8991102,112.255275 47.737127,118.424781 52.8705289,122.561205 C47.3071498,120.738895 40.8136159,121.252655 35.9303028,117.827591 C30.5862999,114.543042 25.8082874,108.966336 24.8123197,102.83635 L24.8123197,102.83635 Z M20.8591615,85.9569324 C21.3944393,93.3120375 29.2963681,97.1981676 32.9599498,103.284243 C33.8242918,104.526926 34.5789458,105.901343 35.7328643,106.942035 C35.5442008,106.1692 34.824647,105.501752 34.5570081,104.70257 C33.2670764,102.151337 32.801999,99.1082994 33.1135131,96.0169597 C33.4689025,92.2669539 35.0440232,88.7760234 34.4473201,84.8240267 C37.6589869,91.7751499 36.6849568,100.443196 38.4838412,107.969554 C38.9489186,109.611829 39.9053986,111.078458 40.5240393,112.654866 C33.9120423,108.140808 24.9000702,103.855087 21.9648173,95.5954134 C20.7275359,92.7499757 20.5959102,89.2239164 20.8591615,85.9569324 L20.8591615,85.9569324 Z M21.0785377,72.4103657 C21.4558647,70.7680915 21.7542162,69.073124 22.4606074,67.5713652 C21.1048628,74.5005329 25.7644122,79.4976133 27.2956577,85.5178217 C27.936236,87.7528954 28.0985744,90.1767867 29.0111792,92.2889094 C29.0945421,92.3372116 29.16913,92.2449984 29.2261678,92.1747406 C26.9446559,85.7812881 30.226523,79.8489019 33.5303278,74.8518215 C34.3244694,73.4949693 34.8027094,71.9844283 35.193199,70.4343673 C35.5442008,73.3237161 34.824647,76.6565667 34.3946698,79.651302 C33.6005281,83.4715656 32.3983469,87.0898381 31.3585039,90.800324 C30.6652753,93.1056554 30.8495513,95.7315377 31.2005531,98.151038 L30.8714889,97.8875715 C28.4408012,93.4218152 23.6540137,89.9308847 22.2456188,85.0479732 C21.0609876,81.1574519 20.284396,76.6565667 21.0785377,72.4103657 L21.0785377,72.4103657 Z M23.6408511,64.9498741 C23.5048379,59.7068917 25.6766617,55.4211708 28.7479278,51.5130851 C28.8269032,51.4647829 28.9014911,51.3813518 29.0067916,51.3989163 C25.637174,56.532121 28.4232511,62.9914401 28.2740753,68.8316131 L27.826548,74.8079104 C27.8835858,74.8518215 27.8835858,75.0274658 28.0503116,74.9615992 C28.2477502,74.3029331 28.2960129,73.5871825 28.4232511,72.8977787 C29.2261678,68.0763426 33.4030896,64.6556699 37.0622837,61.3228193 C37.8432628,60.4665533 38.5145538,59.5707674 38.926981,58.5564215 C38.6374045,60.9495751 37.878363,63.3690754 36.8867828,65.5953669 C34.043668,71.1457268 28.7786404,75.6949141 27.826548,82.0444556 C27.3658581,75.9671628 23.2108738,71.4135843 23.6408511,64.9498741 L23.6408511,64.9498741 Z M32.5343601,47.2449286 C34.1094808,45.2689302 36.1321289,43.8901224 38.3960907,43.3148873 C34.0085678,46.3359693 34.2849817,51.754596 32.8897494,56.2642634 C32.4466096,57.9328843 31.6700181,59.4653808 31.2926911,61.1691305 L31.4067667,61.2613438 C32.1438705,59.3248653 33.4250272,57.5113379 35.0133105,55.9305392 C38.1503894,53.0455816 42.7660636,51.2452275 44.2973091,46.977071 C44.2314962,52.9094573 39.2823703,57.5684223 34.5570081,60.9100552 C32.5957854,62.6138049 30.7135381,64.5722388 29.6429825,66.7634015 C29.5376819,65.2792071 29.8755212,63.7686661 29.7658331,62.170303 C29.2481054,56.9931872 28.8751659,51.0871476 32.5343601,47.2449286 L32.5343601,47.2449286 Z M50.3740283,37.2771145 C47.1097113,40.1401166 44.8457494,43.7627803 42.4326118,47.1439331 C40.2564004,49.8225087 37.4878735,51.6009072 35.0133105,53.9106298 C36.3471175,51.1574054 36.3953803,47.8684658 38.2864026,45.3391879 C40.9715667,40.645094 45.9470177,39.0072109 50.3740283,37.2771145 L50.3740283,37.2771145 Z M63.2075329,37.7162253 C69.3544526,34.68197 76.0805252,33.0572602 83.3989135,32.925527 C100.128538,32.9518736 116.107897,42.7791722 123.386798,58.2797818 C128.002472,67.1893389 129.314341,79.4537022 126.32205,89.5137295 C123.277109,101.391675 113.291107,113.410137 101.664171,118.297439 C88.571803,124.717238 69.9687058,123.114484 58.2978948,114.740642 C42.0728349,103.617967 35.4389003,84.4463914 40.3441509,65.520718 C43.3188914,54.2838739 52.2650507,42.9372521 63.2075329,37.7162253 L63.2075329,37.7162253 Z M124.939981,41.338889 C128.19991,44.2458021 129.665343,48.0265457 130.62621,51.9346314 L131.152713,53.1729237 C126.431738,49.7829887 122.145129,45.2030636 119.126513,40.3816275 L115.440993,36.6535772 C118.683373,38.0279939 122.171454,38.8447399 124.939981,41.338889 L124.939981,41.338889 Z M136.487941,52.0444091 C137.519009,56.7121564 136.018476,61.2613438 136.966181,65.9730021 L136.922306,66.008131 C134.390705,61.0154417 128.998439,58.6661992 125.290982,54.6659003 C123.136709,52.2903111 122.210941,49.3965713 121.680051,46.3359693 C123.812387,51.4647829 129.52933,52.5976886 132.824359,56.9053651 C133.925628,57.9021465 134.285404,59.2853454 134.991796,60.4226422 L135.101484,60.3040823 C133.214849,56.2642634 132.574271,51.7106849 131.275564,47.4073995 C130.595498,45.5323966 129.292403,43.6925226 127.533007,42.5157058 C131.845942,43.4027095 135.592886,47.9123769 136.487941,52.0444091 L136.487941,52.0444091 Z M139.247693,53.063146 C143.187689,58.3983417 144.052031,66.8819614 141.182591,72.9899919 C140.125198,75.5851365 139.366156,78.342752 138.944954,81.2057541 C138.73874,80.7183411 138.699253,80.0508928 138.523752,79.4976133 C136.966181,73.5213159 131.310664,69.2575505 128.976502,63.6149774 C128.248173,61.7707122 127.625145,59.8649716 127.274143,57.8626265 C129.753093,62.455725 135.878075,64.8357053 137.545334,69.8986522 C138.229788,71.1896378 138.194687,72.7836099 138.607115,74.1668087 C138.699253,74.1668087 138.787003,74.1009421 138.787003,74.0087289 C138.058674,68.787702 138.27805,63.3251643 138.988829,58.1743952 C138.944954,55.3772597 138.677315,52.6679463 137.128519,50.5075215 C138.1201,51.0871476 138.572014,52.202489 139.247693,53.063146 L139.247693,53.063146 Z M142.941987,87.6475088 C140.612213,90.9496216 137.791035,94.0453524 135.632374,97.417723 C135.878075,94.7523208 136.189589,91.4633812 135.145359,88.9341033 C133.350862,83.48913 131.771354,77.9651167 131.275564,71.9844283 L131.328214,69.7010524 C132.683959,75.8046918 138.677315,80.0113728 138.2956,86.8527183 C138.431614,88.512557 137.913886,89.9133203 137.615534,91.3755591 L137.720835,91.4897279 L137.988474,91.1779592 C138.874753,87.8275442 139.317893,84.2927027 140.699963,81.1574519 C142.669961,76.6565667 145.109424,72.1029882 144.117843,66.662406 C147.101359,73.0822052 146.210692,81.6492559 142.941987,87.6475088 L142.941987,87.6475088 Z M0.0842404404,167.552492 L166.612673,167.552492 L166.612673,0.852877691 L0.0842404404,0.852877691 L0.0842404404,167.552492 Z" id="Fill-14" fill="#FEFEFE" mask="url(#mask-4)"></path>
                    </g>
                    <path d="M101.814225,105.869727 L102.125739,105.443789 C103.459546,104.398706 104.898653,103.415098 106.078897,102.132894 L106.236848,102.132894 C105.964821,102.045072 105.626982,102.308539 105.324243,102.181196 C104.69244,101.891383 104.591527,101.333713 104.591527,100.692611 L101.8581,97.8691289 L101.713312,97.4475825 C101.507098,97.9832977 101.103446,98.3126307 100.708569,98.7078304 C100.730507,99.0679012 100.603268,99.6036163 101.024471,99.8407361 C101.91075,100.13494 103.064669,100.718958 103.262107,101.755259 C102.906718,102.734476 101.037633,103.62148 102.187164,104.688519 C102.564491,105.215452 101.665049,105.417443 101.814225,105.869727" id="Fill-17" fill="#FEFEFE"></path>
                    <path d="M85.9498193,69.8187341 C86.4631595,70.1085472 86.743961,69.5772232 87.1783257,69.4630544 C87.7925789,69.5333121 88.2752065,70.0646361 88.6525334,70.4598358 C89.051798,70.6398712 89.4335125,70.3983603 89.7889019,70.266627 C90.0346032,68.4223619 92.3380527,68.6858283 93.0268938,66.9601231 L92.6056916,67.1138118 C92.4301907,66.8679098 91.9870509,66.9776875 92.013376,66.5824878 C92.3863154,66.2180259 92.877718,65.6647464 93.3384079,65.5110576 C91.35086,64.2683742 89.2799492,63.1969439 87.0115999,62.6261 C86.1297077,62.4197179 85.1951654,62.3977624 84.3483734,62.0903849 C84.7739632,63.3594149 84.4010237,65.2212445 84.6686626,66.6922655 L86.2525584,67.2148073 C86.7307984,66.4463635 87.7443162,66.2926747 88.187456,65.5593598 C88.4770325,65.3134578 88.8060967,65.5593598 89.0386354,65.8228262 C89.1088358,66.4200169 88.950885,67.0172075 88.7709966,67.5968337 C88.1655184,68.7999971 86.743961,68.9449037 85.9498193,69.8187341" id="Fill-19" fill="#FEFEFE"></path>
                    <path d="M109.592864,84.7410347 C108.653934,87.7225967 107.565829,90.6251188 105.701131,93.2246545 C104.972802,94.1599604 104.253249,95.4553371 103.309931,95.9339678 L105.328192,97.7167574 C105.429105,97.6069798 105.372067,97.4269443 105.398392,97.2732556 C105.398392,97.005398 105.521243,96.6936294 105.859082,96.7375405 C106.828725,96.7111938 106.850662,97.7562774 107.407878,98.2919925 C107.293802,99.1394763 108.030906,99.8025335 107.780817,100.57976 C113.379296,94.6737199 116.178536,87.4327836 116.691876,79.4146213 L116.990228,79.0589416 C114.998292,79.2565415 112.887894,79.116026 110.830146,79.1467638 L110.334356,78.9974661 C110.479144,80.3455361 110.119367,81.6584773 110.036004,82.9933739 L110.755558,83.7881644 C110.970546,84.099933 110.891571,84.5653904 110.606382,84.8069013 C110.29048,85.0132834 109.895603,84.995719 109.592864,84.7410347" id="Fill-21" fill="#FEFEFE"></path>
                    <path d="M101.279824,61.1348799 L101.174524,61.4071285 C99.1299382,63.5324246 96.8835265,65.7323694 94.9398538,67.9147499 C95.067092,68.1738252 95.2864681,68.4241183 95.545332,68.5514604 C95.6243074,68.0201364 95.9182714,67.5502879 95.9665342,67.0013995 C96.4886494,66.2680845 97.2959536,66.7335419 97.9760197,66.8872307 C99.0421877,66.6413287 100.042543,67.1331327 101.126261,67.1155683 C101.933565,67.510768 102.003766,68.533896 102.732095,68.9334868 C102.929533,69.2145177 102.77597,69.5570241 102.503943,69.7765794 C102.732095,71.4452003 103.526236,69.3330776 104.373028,69.7326684 C104.72403,69.8644016 105.16717,69.8204905 105.430421,70.1981258 C105.566434,70.8875296 106.408839,70.7601875 106.457102,71.4188537 C106.386901,71.7481867 106.035899,71.8360089 105.803361,72.0204354 C106.009574,72.6834926 105.127682,73.1050389 105.430421,73.8163984 C106.715965,74.0623004 106.764228,72.5693238 107.360931,71.9062666 C107.031867,70.7601875 106.786166,69.5789796 106.128037,68.5514604 C105.395321,68.3977717 104.952181,67.5283324 104.215077,67.3790347 C102.797907,66.816973 104.434453,65.9299693 104.250177,65.0868766 C103.504299,63.6685489 102.310892,62.3995188 101.279824,61.1348799" id="Fill-23" fill="#FEFEFE"></path>
                    <path d="M84.4580615,111.463559 C86.1033826,110.910279 88.0119551,110.998101 89.7889019,110.708288 C89.4379,110.572164 89.0737356,110.488733 88.8060967,110.128662 C87.7662538,110.062795 87.2792388,108.978192 86.9501745,108.152664 C86.7878362,107.559864 87.1958758,107.06806 87.4415771,106.5543 C86.9984373,105.645341 85.6207551,106.304007 84.8178384,105.979065 C84.5984622,105.79903 84.4361239,105.526781 84.1333848,105.48287 L84.4580615,105.979065 C84.4580615,107.801375 84.6818252,109.667596 84.4580615,111.463559" id="Fill-25" fill="#FEFEFE"></path>
                    <path d="M85.8862002,94.1366875 C86.4653532,94.2464652 86.0529261,94.8743935 86.4785158,95.0939489 C87.3867331,94.8041358 88.0843492,95.8667838 88.803903,95.2037266 C88.7688028,94.158643 89.9490465,94.2464652 90.5896248,93.9829987 C91.5943676,93.381417 92.7175734,92.5866265 92.6078854,91.2473387 L92.4411595,91.05413 C91.7567059,91.05413 91.4100916,91.5810629 90.9055265,92.0026092 C90.2737232,92.36268 89.9578215,91.3351609 89.4532564,91.5810629 C89.4795815,91.6952317 89.5892696,91.7435339 89.6814076,91.7830539 C89.8086457,91.9455248 89.852521,92.2748579 89.6814076,92.4285467 C88.9223661,93.1179505 88.5713643,92.0904314 87.856198,92.1606891 L87.856198,92.4285467 C87.8869107,92.5866265 87.8123228,92.8281374 87.5973342,92.7359242 C87.1454193,92.0026092 86.2372021,92.2748579 85.7896747,91.6337562 C85.5088732,91.4756763 85.2368468,91.6732762 85.0437958,91.8533116 C84.8814575,92.1870357 84.1750663,91.8094005 84.3505672,92.3890267 C83.7977393,92.5866265 83.736314,93.179426 83.3326619,93.5394969 C82.6394332,93.420937 82.3366942,94.2025541 81.6873408,94.1849897 C81.7531536,94.3167229 81.6873408,94.5406694 81.8803918,94.5582338 C82.2884314,94.7338781 82.6833085,94.7777892 83.174711,94.7119226 C83.8416145,93.6492745 84.9516578,94.5406694 85.8862002,94.1366875" id="Fill-27" fill="#FEFEFE"></path>
                    <path d="M92.4415982,85.4585417 C92.4766984,85.7878748 92.5249612,86.2313766 92.8057626,86.5167986 C93.6701047,86.3894565 93.3015527,87.5838377 94.0956944,87.4784512 C94.5432217,87.3467179 94.1220195,86.9690827 94.2448702,86.6792696 C94.1220195,86.0118213 93.4726661,85.9415635 93.0251388,85.5463639 C92.976876,85.4102395 93.0734015,85.3004618 93.1348269,85.1906841 C92.8057626,85.0150398 92.6521993,85.2126397 92.4415982,85.4585417" id="Fill-29" fill="#FEFEFE"></path>
                    <path d="M91.4346617,54.8064157 C89.1838625,54.002843 86.7312371,53.67351 84.2829993,53.3002658 L84.506763,53.7876788 L84.4585003,59.8034961 L85.0464283,59.6893273 C88.718785,60.1986957 92.0927902,61.3799037 95.0061054,63.7554928 L95.1596687,64.2209502 C96.1512489,62.8201869 97.6649443,61.6214146 98.8364129,60.2953001 L99.9508437,59.6454162 L99.4155659,59.4258608 C96.9761032,57.3839958 94.3216518,55.8339349 91.4346617,54.8064157" id="Fill-31" fill="#FEFEFE"></path>
                    <path d="M50.160356,79.5929003 L50.6429835,83.6810214 C50.840422,85.257429 51.5292631,86.76797 51.4810004,88.322422 C51.7223141,87.9886979 51.5731383,87.3212495 52.174229,87.2553829 C51.9241402,86.76797 52.6393064,86.3464236 52.2400418,85.9248773 C52.4374804,84.8622293 52.5647185,83.7688435 53.508036,82.9916175 C54.6400169,82.9433153 54.7233798,81.4547299 55.8597483,81.3888633 C56.4345138,81.3625166 56.7899031,82.1441338 57.0443794,82.4076002 C56.3292132,81.5513342 56.3643134,80.1242243 56.5442018,79.1493984 L56.0527993,79.3733449 C53.995051,79.3294338 51.8451648,79.4962959 49.8883295,79.215265 L50.160356,79.5929003 Z" id="Fill-33" fill="#FEFEFE"></path>
                    <path d="M89.9477302,89.9853344 C90.474233,89.4320549 91.5974388,89.4540104 91.6500891,88.65922 C90.86911,88.536269 90.474233,88.9622064 89.9477302,89.3881438 C89.8731423,89.5550059 89.6362161,89.8667745 89.9477302,89.9853344" id="Fill-35" fill="#FEFEFE"></path>
                    <path d="M104.063269,78.8411427 L104.743335,79.5217643 C105.427789,79.9916129 104.971486,80.9840031 105.699815,81.387985 C106.555382,81.8314869 106.871284,82.8326594 107.261773,83.5879299 C107.384624,83.3903301 107.384624,83.144428 107.459212,82.9468282 C107.761951,81.7217092 107.713688,80.3472926 108.095403,79.1485202 C106.761596,79.2143868 105.225963,79.34612 104.063269,78.8411427" id="Fill-37" fill="#FEFEFE"></path>
                    <path d="M92.4999523,93.6084372 C93.302869,94.0255925 94.2725116,94.0519391 95.114916,94.4032277 C95.8695699,94.6008275 96.3829101,95.5405246 97.330615,95.2463204 C98.1335317,94.8028185 99.4629512,95.5141779 99.998229,94.6710853 C99.9104785,93.8499482 100.621257,93.2483664 100.976647,92.5413981 L101.239898,92.4755315 C101.683038,92.9365978 101.6611,93.6303928 101.858539,94.1353702 C102.481567,93.4723129 102.968582,92.738998 103.525797,92.0539852 C104.986843,89.9199069 106.237287,87.6321399 106.763789,85.1906841 C106.171474,85.2126397 105.565996,85.3180263 105.017555,85.4980617 C104.372589,85.4585417 103.59161,85.8317858 103.038782,85.388284 C102.845731,85.2126397 102.700943,85.4761061 102.736043,85.6561415 C102.503505,85.9898657 102.284128,86.4070209 101.770788,86.2577233 C101.371524,86.0776879 101.371524,85.6561415 101.239898,85.3443729 C101.261836,85.5902749 101.178473,85.8142214 101.13021,86.0337768 C100.665132,86.5167986 100.502794,86.9866471 100.178117,87.5179711 C99.7086525,88.0317307 98.9539985,87.8516953 98.462596,88.2732416 C98.3748455,89.3402807 97.1989894,89.1163343 96.5364734,89.4544495 C96.4882106,89.5861828 96.6461615,89.6081383 96.7075868,89.7223071 C97.027876,89.8057381 97.4446906,89.8057381 97.6640668,89.4939695 C98.6029967,89.7442626 98.3967831,88.5674458 98.940836,88.1634639 C99.4059134,88.0975973 99.8490532,87.6980065 100.322906,88.0141663 C100.818696,88.6069658 100.928384,89.472014 100.862571,90.2536311 C100.322906,90.780564 100.59932,91.6500033 100.221993,92.2735406 C100.305356,93.0068555 99.4146884,93.3361886 99.5331516,94.0738946 C99.2479626,94.4032277 98.7521725,94.4515299 98.3090327,94.4515299 C96.5627985,93.7840815 94.7156514,93.3625352 92.7588161,93.1824998 C92.5833152,93.2483664 92.4736272,93.4020552 92.4999523,93.6084372" id="Fill-39" fill="#FEFEFE"></path>
                    <path d="M81.8821468,113.861542 L82.110298,113.523427 L81.4214569,113.707854 C72.7692617,113.106272 65.1086466,110.04567 58.7906136,103.928857 L58.7204132,104.196715 L54.1486143,108.794204 C61.067738,114.796848 68.8863039,118.661023 77.8017505,119.881751 C79.2276954,120.123262 80.8510789,119.991529 82.2199861,120.413075 L81.8821468,119.881751 L81.8821468,113.861542 Z" id="Fill-41" fill="#FEFEFE"></path>
                    <path d="M80.9379519,93.6084372 C81.0871276,93.0068555 80.8502014,92.2559761 81.157328,91.7422166 C81.3767041,91.2460214 81.9734073,91.2723681 82.4209346,91.3601902 C82.684186,91.3382347 82.8465243,91.0089016 82.684186,90.7761729 C82.0436076,90.657613 82.3375717,89.9418625 82.1094205,89.5422717 C82.1401331,89.3183252 82.5130726,89.3622363 82.4209346,89.0724232 C81.9734073,88.7167435 82.6403108,88.3215438 82.2673713,87.9439086 C82.3726719,87.8692597 82.4560348,87.7375265 82.5657229,87.6584866 C81.2275284,88.2249394 79.7928084,87.4038023 78.6081772,86.8768694 C78.0202491,86.534363 77.1866197,86.2094211 77.0549941,85.4980617 C76.1029016,87.0525137 74.268917,88.4708415 72.9394975,89.9199069 C75.317535,91.8783409 77.9807614,93.0946777 80.9379519,93.6084372" id="Fill-43" fill="#FEFEFE"></path>
                    <path d="M70.6579856,82.9929348 C70.442997,82.878766 70.4166719,82.9051127 70.2367834,83.0983214 C70.1270953,83.0983214 69.9910821,83.120277 69.9033317,83.0544103 C69.9033317,81.7897714 68.4905493,82.549433 67.9552715,81.8863757 C68.5782997,83.0324548 68.907364,84.3410048 69.5479423,85.4958661 C69.9515944,86.5189942 70.8334865,87.3225668 71.2371386,88.3193482 C71.6627284,87.5201667 72.5051328,86.8746739 73.1062234,86.1413589 C73.1500986,85.8120259 73.0798983,85.5222128 72.8956223,85.2763107 C72.6981838,84.8064622 72.8780722,84.1477961 72.5182953,83.7482053 C71.9523049,83.9501963 72.7245089,84.5210403 72.4744201,84.8635466 C72.2374939,85.0128443 71.9654674,84.8064622 71.9523049,84.5869069 C71.4389647,84.5034758 71.0353126,84.0555829 70.8773618,83.5857343 C71.298564,83.3222679 70.7720612,83.2080991 70.6579856,82.9929348" id="Fill-45" fill="#FEFEFE"></path>
                    <path d="M75.6751181,84.0134282 L74.9204641,83.635793 C74.7800634,84.1890725 74.4115115,84.6720943 74.0034719,85.0760762 L74.0780597,85.1199873 C74.60895,84.7423521 74.995052,84.0573393 75.6751181,84.0134282" id="Fill-47" fill="#FEFEFE"></path>
                    <path d="M81.3578378,105.223356 C75.9611846,104.951107 71.2402099,102.9795 67.0413505,99.844249 C67.1729761,100.375573 67.8793673,100.718079 67.6863163,101.376746 C67.3046018,101.987109 66.5280103,101.995892 65.9137571,101.987109 C64.6413754,101.776336 63.7112206,102.737989 62.5222018,102.865331 C61.4297086,103.203446 61.0479941,101.864158 60.0520264,101.987109 C66.2208837,107.370607 73.271633,110.747369 81.5333387,111.195262 L82.156367,111.616808 L81.8843406,110.861538 L81.8843406,104.995018 L81.3578378,105.223356 Z" id="Fill-49" fill="#FEFEFE"></path>
                    <path d="M57.3896775,102.333568 C56.6350236,101.797853 55.9637326,100.937196 55.3275417,100.195099 C54.5904379,100.00189 53.8357839,99.4881302 53.458457,98.785553 C53.2390808,98.5308688 53.4452944,98.0961491 53.1995931,97.9161137 L52.9231792,98.2498379 C52.1465876,98.623082 51.8701737,97.8239005 51.3348959,97.4945674 C50.6416672,97.1213233 50.9795065,95.8083821 50.0405766,96.049893 C49.6895748,96.0279375 49.5798867,95.6283467 49.3517355,95.4087913 C48.4961685,95.4922224 48.2680173,94.539352 47.8029399,94.0738946 C47.7151894,94.2758856 47.8029399,94.539352 47.535301,94.6710853 C46.6490214,94.8730762 46.3418948,93.7840815 45.7320291,93.3361886 C45.5784658,93.4020552 45.4687777,93.5908728 45.245014,93.5425706 C44.7228988,93.0727221 44.3631219,92.4052738 44.3324092,91.6719588 C43.6040804,90.8464306 43.9375322,89.5422717 44.0735454,88.5367081 C44.2051711,88.2732416 44.5912731,88.123944 44.5122977,87.7858287 C44.7228988,87.3203713 45.2099138,87.2764602 45.6749913,87.2545047 C45.8548797,87.3467179 46.0303806,87.5179711 46.1137436,87.6804421 C46.4033201,87.4960156 47.0526735,87.6980065 46.8069722,87.0525137 C47.1799116,86.7231807 47.737127,86.6046208 48.2504672,86.5167986 C48.6014691,86.9690827 48.77697,87.4784512 49.2508225,87.8956064 L48.9393083,87.4125845 C48.4040305,85.2345952 47.9872159,83.0126948 47.8687527,80.6546701 C47.8906903,80.527328 47.5923388,80.4570702 47.7590647,80.3297281 L47.8029399,80.3912036 C47.829265,79.9037907 47.7853898,79.4822444 47.8687527,79.1485202 L47.2720496,79.3724667 L41.0988048,79.3285556 C41.4541942,86.4289765 43.3408291,92.8926867 46.5393333,98.8338552 C48.114454,101.753942 50.4222911,104.397388 52.4361641,107.133048 L56.8500122,102.557514 L57.3896775,102.333568 Z" id="Fill-51" fill="#FEFEFE"></path>
                    <path d="M81.8347615,44.6752525 C75.4070404,45.0572788 69.6462228,47.0113216 64.4864959,50.4759055 C63.1132012,51.4331669 61.8495946,52.6758503 60.4280371,53.518943 C62.0777458,54.5596355 63.4291028,56.298514 64.9120856,57.6685396 L65.0656489,58.094477 C68.8433061,54.4762044 73.4326551,52.3684728 78.3861685,51.3453448 C79.5576371,51.2267849 80.7422683,50.8315852 81.8830243,51.0774872 C81.7996614,48.9653645 81.6153854,46.7654196 81.8347615,44.6752525" id="Fill-53" fill="#FEFEFE"></path>
                    <path d="M65.1797245,61.3557526 C62.121621,65.0223273 60.0287726,69.0621462 59.2083058,73.6640269 C58.9626045,74.7266749 59.0986177,75.9649673 58.673028,76.974922 C59.4583946,76.6104601 60.585988,76.7509755 61.4459425,76.8563621 C60.9457648,76.5928956 61.366967,75.9474028 61.0686155,75.5917231 C61.0028026,75.0428347 60.9106647,74.3534308 61.4459425,73.99336 C61.3889047,73.0800096 62.3541597,72.6145522 62.4506852,71.7934151 C62.691999,70.8625003 63.758167,71.4904287 64.2671197,70.9986247 C64.6005714,70.8185893 64.3153825,70.5068206 64.3153825,70.2653097 C64.7541348,69.6593369 65.4473634,69.6900746 65.9738661,69.3519593 C66.3555806,68.7723332 66.8425957,68.153187 67.4612364,67.8018984 C68.7994309,67.8502006 68.8213685,65.9751977 70.0849751,65.9312866 C68.3519036,64.6227366 66.7065825,62.8706847 65.1797245,61.3557526" id="Fill-55" fill="#FEFEFE"></path>
                    <path d="M60.0537814,82.6745795 C60.1152068,82.2749888 59.5228912,82.1696022 59.5843165,81.7700114 C60.0099062,80.9444832 59.6062541,79.6139776 60.6943598,79.2582979 C59.9221557,79.3900311 59.2333146,79.5437199 58.5664112,79.0606981 L58.8910879,79.5920221 C58.9393506,81.058652 59.5228912,82.4594153 59.2069895,83.9480007 C59.4570783,83.5220633 59.5228912,82.9468282 60.0537814,82.6745795" id="Fill-57" fill="#FEFEFE"></path>
                    <polygon id="Fill-59" fill="#FEFEFE" points="66.1721822 98.7078304 66.0844317 98.5541416 66.1721822 98.8307814"></polygon>
                    <path d="M58.825275,54.9614218 L58.7901748,55.378577 L56.3858123,58.4303967 C52.4633668,63.8226768 50.594282,70.0668316 50.0414541,76.859875 L56.1269484,76.7500973 L56.7017139,76.9740438 C56.4604001,76.8115728 56.5174379,76.5481063 56.434075,76.328551 C56.9254776,69.9965739 59.1455642,64.3583919 63.5111495,59.6467335 C61.8263407,58.1844947 60.2468324,56.6344338 58.825275,54.9614218" id="Fill-61" fill="#FEFEFE"></path>
                    <path d="M77.5323566,96.9158194 C78.0237591,96.3932776 78.5941371,96.0463801 79.1996153,95.8268248 C77.2296175,96.2264155 75.4921584,94.8080878 73.8073496,94.0264707 C72.8552571,93.3151113 71.6092006,92.7354851 71.0388226,91.6728371 C69.7225657,93.2712002 68.1737701,94.9354299 66.620587,96.20446 C67.3050406,96.2483711 67.6823676,97.0036416 68.2659081,97.3417569 C71.596038,100.112546 75.7422472,101.447442 79.5944923,102.404704 L78.5414868,101.908509 C77.7385701,101.003941 76.6022017,99.9325103 76.562714,98.6722624 C77.3568556,98.4000138 77.2734927,97.5217923 77.5323566,96.9158194" id="Fill-63" fill="#FEFEFE"></path>
                    <path d="M62.3541597,79.2565415 L62.1786588,80.4289672 C61.9154074,81.1271533 61.0466779,80.6090026 60.6561883,81.0832422 C60.3666118,81.5223529 60.6693509,81.9878103 60.9106647,82.3390989 C60.2920239,83.7662089 62.314672,84.2184929 62.2927344,85.4963052 C62.9113751,86.2954868 62.2049839,87.4503481 63.0956511,88.1617075 C63.2887021,89.6063819 62.893825,91.5648158 64.1618192,92.6933304 L64.3855828,94.0765293 C64.6444467,95.0293996 63.2492144,94.7791065 63.4291028,95.6309814 C63.7011292,95.494857 63.758167,95.8505367 63.7801047,95.9339678 L63.7801047,95.8944478 C65.4912386,93.9184494 67.4612364,91.8282823 69.479497,90.0806215 L68.6370926,89.2287466 C67.0619718,86.875113 65.8203028,84.3633995 65.2235997,81.6101751 L64.5786338,81.2852331 C64.5566962,81.9878103 64.2232445,82.545481 64.2671197,83.2568404 L64.043356,83.524698 C63.5826661,83.5027424 63.2887021,83.1207161 62.893825,82.8792052 C62.801687,82.6333031 62.5559858,82.2381035 62.9420878,82.0361125 C63.1614639,82.0185481 63.3106397,82.0844147 63.4773656,82.1854102 C63.6748041,81.9482904 63.5826661,81.5926106 63.7011292,81.2852331 C63.758167,80.7451269 63.2887021,80.257714 63.6221538,79.7922566 C64.043356,79.7483455 64.3592577,80.257714 64.5303711,80.543136 C64.9559608,80.6792603 65.2894126,80.3279717 65.6448019,80.1698918 C65.6448019,79.7922566 66.1713047,79.278497 65.6009267,79.0589416 C65.9124408,78.1938934 65.6886771,77.2805431 65.5482764,76.4418415 C65.3113502,75.7085266 64.4908834,75.8402598 63.8897927,75.9017353 C62.0952959,76.4769704 64.1837568,77.8382137 63.740617,78.9447728 C63.4861406,79.5946567 62.8236247,78.993075 62.3541597,79.2565415" id="Fill-65" fill="#FEFEFE"></path>
                    <path d="M119.22962,79.1472029 L118.85668,78.8793453 L119.076056,79.480927 C118.729442,86.8755521 116.263654,93.4007379 112.034082,99.2101731 C111.226778,100.180608 110.454574,101.37938 109.427893,102.068784 C111.11709,103.39929 112.986174,105.397244 114.372632,106.934131 L114.548133,106.604798 C121.344406,98.8501023 125.201038,89.8702874 125.62224,79.480927 L125.894267,78.9452119 L125.565203,79.112074 L119.22962,79.1472029 Z" id="Fill-67" fill="#FEFEFE"></path>
                    <path d="M59.0986177,51.9579043 L59.2083058,51.6505267 C65.6886771,45.7444871 73.2352166,42.4994587 81.8830243,42.0998679 L81.6899733,41.572935 L81.6153854,36.2333483 L81.7996614,35.6142021 C72.8798272,35.9698818 64.9559608,39.0129193 57.9271491,44.0758663 C56.5714045,45.0111722 55.3736107,46.4294999 53.991541,47.2330726 L54.1889795,47.2330726 C55.9439887,48.515276 57.6156349,50.3639322 59.0986177,51.9579043" id="Fill-69" fill="#FEFEFE"></path>
                    <path d="M81.5794077,53.4706408 C75.9414407,53.8746227 71.0493527,56.2282563 66.7759053,59.7630979 C68.4651017,60.9311325 69.9656345,62.8193087 71.5012675,64.1717698 C71.6109556,64.0224722 71.7250312,63.8687834 71.8347193,63.6843569 C73.9451178,62.1825981 76.1257167,60.8037903 78.6090547,60.1802531 C79.7059354,60.0660843 80.8028161,59.5435425 81.9523472,59.8026178 C81.7154209,57.7124507 81.7154209,55.4071192 81.9523472,53.2510854 L81.5794077,53.4706408 Z" id="Fill-71" fill="#FEFEFE"></path>
                    <path d="M81.8821468,62.2642727 C78.3150906,62.7385123 75.028836,63.9548491 72.4182598,66.7344202 L72.8921123,66.7344202 C73.4361651,67.2657442 74.2917321,67.1515754 74.6953842,67.8673259 C74.8972103,68.2669167 74.3180572,68.2230056 74.3399949,68.5523387 C74.458458,68.648943 74.6120213,68.6621164 74.6953842,68.8245873 C75.1165864,68.9694939 75.028836,68.5786853 75.1911743,68.3986499 C75.7396147,67.8497615 75.8317527,68.934365 76.3626429,68.934365 C76.7399699,68.688463 77.2708602,68.6621164 77.529724,69.0880538 C77.8938884,68.771894 78.6485424,69.0617071 78.7582305,68.4908632 C79.4558466,67.7575482 79.0741321,66.6246425 80.0920374,66.1591851 C80.4474268,66.3567849 80.0700998,66.6905091 80.2017255,66.9978866 C80.8861791,67.2876997 81.6671582,66.4226515 82.2199861,67.1164465 C81.7154209,65.6629899 81.833884,63.867027 81.8821468,62.2642727" id="Fill-73" fill="#FEFEFE"></path>
                    <path d="M82.1094205,72.2193526 C81.4469045,73.3259116 80.3368612,73.5718137 79.2926308,73.8835823 C79.0030542,74.2348709 79.0732546,75.016488 78.3844135,74.9462303 C78.1650374,75.4424255 77.4059959,75.7278475 77.6999599,76.4392069 C77.3357955,77.1944774 77.5112964,78.1693032 77.322633,78.9948314 C76.0063761,79.8159685 76.3793155,77.9014457 75.7255746,77.5018549 L75.4930359,77.8838812 C75.2385596,77.9453567 75.0586711,77.791668 74.8743952,77.6204148 C74.6769566,77.5413749 74.3435049,77.4755082 74.1636164,77.6599348 C73.8740399,78.1517388 73.4352876,78.5469385 73.5405882,79.2143868 C73.41335,79.6095865 72.7508341,79.4822444 72.834197,79.9037907 C73.5713008,79.8818352 74.361055,79.7501019 75.0762212,79.5920221 C75.5895614,79.7237553 76.0063761,79.34612 76.5197163,79.3285556 C76.6864421,79.4163778 76.9058183,79.5920221 76.8268429,79.8598796 L77.0111188,79.8598796 C77.3577331,79.5920221 77.5112964,79.1836491 77.3577331,78.7972316 C77.4059959,78.3273831 77.9193361,78.3273831 78.2220752,78.1912588 C78.5116517,78.3273831 78.3361508,78.6128051 78.3844135,78.8411427 C79.3803812,79.2143868 78.1430997,79.9477018 78.002699,80.4790258 C77.7394476,80.9049632 78.002699,81.8578335 77.1602946,81.7217092 C77.0111188,81.6821892 76.9058183,81.5241094 76.945306,81.3396829 L76.8268429,81.3396829 C76.8136803,81.7041448 77.0769317,82.1871666 77.432321,82.3408554 C78.0465742,81.8314869 78.0685119,80.9664387 78.9679541,80.8522699 C79.4242564,80.364857 78.7617405,79.6095865 79.4549691,79.2143868 C80.6045001,79.1836491 81.8330065,78.7006272 82.7543863,79.631542 C82.684186,80.0311328 82.5393977,80.2199504 82.8684619,80.5448924 C82.6403108,81.058652 82.4955225,81.6119315 82.0699328,82.0334778 C82.1796208,82.3232909 82.0918704,82.6745795 81.8330065,82.8765705 C81.534655,84.2334227 79.9770843,83.5879299 79.0732546,84.0533873 C80.4728744,85.1204264 82.1532957,85.5200172 83.9741177,85.388284 C84.9262102,85.3443729 84.505008,84.1675561 84.9964106,83.6362321 C85.3035372,82.08178 86.7294821,83.144428 87.5938241,82.7228817 C87.9228884,82.0598245 88.2607276,81.4099406 88.3440906,80.6546701 C87.7912627,80.3033815 87.5718865,79.631542 87.7473874,78.9948314 C87.374448,78.4810719 87.4095482,77.545766 86.5890814,77.4579438 C86.4618432,77.2822995 86.5671438,77.0495708 86.6812194,76.9310109 C86.6636693,76.4392069 87.1462968,76.281127 87.2779225,75.9034918 C86.7733574,75.5697676 86.904983,74.8408437 86.9488583,74.4105152 C86.0801287,74.6608083 85.9923783,73.5279026 85.3517999,73.2863917 C85.1938491,72.7726321 84.6366337,72.6804188 84.1978814,72.5969878 C83.1273258,73.1063563 82.9562124,71.7934151 82.1532957,71.4904287 C82.0699328,71.2401356 81.8812693,70.8844559 82.1532957,70.686856 C82.5613353,70.3531319 83.0878381,70.6385538 83.548528,70.6122072 L83.1755886,70.4189985 C82.8245867,70.0194077 82.0479952,70.2653097 81.5785302,70.4189985 C82.02167,70.8625003 81.8330065,71.6616819 82.1094205,72.2193526" id="Fill-75" fill="#FEFEFE"></path>
                    <path d="M47.910873,76.9305718 L47.7616972,76.0611325 C48.1828994,68.9694939 50.4424737,62.6682546 54.4175695,57.0256814 C55.4091497,55.8927757 56.141866,54.4788391 57.3879225,53.6269642 C55.9444274,52.2745031 54.4438946,50.6937044 52.9258117,49.2095101 L52.7722484,48.6035372 C46.4454403,55.6468737 42.5493199,63.6869915 41.408564,72.8644062 C41.1584752,74.1993029 41.3295886,75.5693285 41.0575621,76.9305718 C43.2820363,76.7505364 45.6863988,76.7505364 47.910873,76.9305718" id="Fill-77" fill="#FEFEFE"></path>
                    <path d="M107.947104,103.469987 C107.315301,104.686323 105.942006,105.459158 104.897776,106.398855 C103.458668,107.847921 101.102569,108.150907 100.369852,110.245465 C99.6020357,110.948043 99.3343968,112.058993 98.2506786,112.462975 C97.842639,113.525623 96.7062705,113.464147 96.0700797,114.232591 C94.2053825,115.901212 93.0032012,113.174334 91.3183924,112.84061 L87.9224496,113.442192 C86.7422059,113.442192 85.5707373,113.863738 84.4563065,113.481712 C84.6230324,115.743132 84.6230324,118.188979 84.4563065,120.45479 L84.8818962,120.186933 C95.5786771,119.725867 104.810025,115.659701 112.729504,108.462676 L108.052405,103.996919 L107.947104,103.469987 Z" id="Fill-79" fill="#FEFEFE"></path>
                    <path d="M85.2504481,40.4624239 C85.4434992,40.1067442 85.9524518,40.2384774 86.2157032,40.3482551 L89.4142074,38.9738385 C90.6953641,39.079225 92.112534,39.2373049 92.875963,40.3087351 L92.875963,40.4624239 C92.0730463,41.12109 91.055141,41.6568051 89.9933604,41.2089122 C88.5235403,41.5031164 86.4789546,42.346209 85.3030984,40.835668 C85.2504481,40.7258904 85.12321,40.5678105 85.2504481,40.4624239 M104.318623,44.4978517 C104.761763,44.6383671 105.169802,44.8315759 105.327753,45.3058155 C105.204902,45.8020106 105.792831,46.2279481 105.428666,46.63193 C104.230872,46.9436986 104.125572,45.5912375 103.191029,45.2575133 C103.063791,45.0730868 103.019916,44.8535314 103.037466,44.6120205 C103.458668,44.102652 103.853545,44.9457447 104.318623,44.4978517 M84.3466184,41.5206808 C84.3466184,41.323081 84.4387564,41.1474367 84.5572195,40.998139 C84.8643461,40.8093214 85.12321,41.0859612 85.2504481,41.3011254 C85.2811608,41.6128941 85.4127865,42.1486092 85.1495351,42.3242535 C85.4127865,42.3725557 85.5531872,42.1705647 85.7901135,42.1705647 C90.870865,42.5482 95.5786771,44.0323943 99.7994742,46.4343301 L99.7994742,46.3245524 C100.663816,45.898615 101.77386,45.3453355 102.660139,46.100606 C103.726307,45.7010152 103.923746,47.0095652 104.788088,47.163254 C105.836706,47.7867912 107.012562,48.9460436 107.144188,50.1667715 C107.332851,50.5663623 107.969042,50.8517843 108.052405,51.2733306 C108.763184,49.7671807 110.180353,48.6957505 111.40886,47.3872005 L112.154739,47.0754318 C105.459379,40.6819793 97.4916371,37.1471377 88.6069032,35.9264098 C87.1985083,35.6805078 85.6321626,35.8166322 84.2851931,35.3950858 C84.5572195,37.1471377 84.4826316,39.5446824 84.3466184,41.5206808" id="Fill-81" fill="#FEFEFE"></path>
                    <path d="M84.3483734,51.0761699 C85.1907778,50.7819657 86.0551199,51.1420365 86.9019118,51.163992 C91.2543345,51.8797425 95.3654435,53.2717236 98.8359742,55.9590814 C98.423547,55.5111885 97.9102068,55.0062111 97.8180688,54.3607183 C97.8926567,54.2728961 97.9760197,54.2509406 98.0857077,54.2728961 C98.1339705,53.5791012 97.3968666,53.2278126 97.2959536,52.6042753 C97.3968666,52.4769332 97.559205,52.3408088 97.7829687,52.4066755 C98.5288476,53.1180349 99.1650384,53.8952609 99.7310288,54.6900514 C100.222431,54.4968426 100.617308,54.8042202 100.977085,55.0676866 C101.617664,55.4453219 101.222787,56.2708501 101.709802,56.7143519 C101.797552,58.0272931 103.39461,58.760608 103.30686,60.0691581 C103.320023,60.3809267 103.706125,60.1350247 103.83775,60.2931045 L105.16717,61.9309876 C104.921468,62.2471474 105.127682,62.6247826 105.395321,62.8399469 C105.992024,63.1121956 106.325476,62.352534 106.917791,62.4667028 C107.782133,62.9541157 106.786166,63.5293508 106.873916,64.069457 C107.207368,64.0826303 107.632958,63.8015994 107.900597,64.1353236 C108.010285,64.6227366 107.496944,64.9345052 107.290731,65.2462738 C107.290731,65.7292956 107.694383,65.6239091 108.05416,65.7292956 C108.449037,65.7117312 108.694738,66.2035353 108.589438,66.5372594 C109.695093,67.6921207 108.251598,68.930413 108.786876,70.155532 C109.13349,70.9503225 108.694738,71.7275485 108.203336,72.3247391 C108.229661,73.3083472 107.334606,73.9055378 106.992379,74.7266749 L105.856011,74.9462303 C105.250533,75.547812 106.373739,76.281127 105.763873,76.6631534 L108.251598,76.7070644 L107.983959,76.443598 C107.632958,75.4687721 107.716321,74.1514399 108.321799,73.2820006 C108.694738,72.4872101 108.786876,71.5255576 109.497655,70.8405448 C109.646831,70.8010248 109.93202,70.5068206 110.07242,70.8405448 C110.116296,71.5958153 110.05487,72.4608635 109.695093,73.1327029 C110.41026,74.1514399 110.313734,75.4819454 110.379547,76.7465844 C112.573308,76.6104601 114.73197,76.5709401 116.890631,76.5928956 L116.693193,76.1669582 C116.355353,72.0612727 115.512949,68.1751425 113.801815,64.6666476 C113.336737,64.6929943 113.003286,65.0662384 112.472395,64.9345052 C112.292507,64.8686386 112.178431,64.6929943 112.204757,64.4953944 C111.318477,63.6479107 110.752486,62.5369605 109.765294,61.7772989 C108.624538,61.8914677 108.115585,60.5741354 107.09768,60.4467933 C106.189463,60.0691581 106.812491,58.6025282 105.500622,59.00651 C104.855656,58.7386525 104.22824,58.2512396 104.101002,57.5179246 C104.101002,56.3586722 103.881626,55.1159888 102.84617,54.3607183 C102.038866,54.0709052 101.709802,55.1335532 100.906885,54.9623 C100.463745,54.7383535 100.661184,54.1587273 100.520783,53.7854832 C100.371607,53.4473679 99.9942802,53.205857 100.060093,52.7623552 C101.104324,51.3879385 98.7964865,51.4142852 99.3054391,50.0530418 C99.1650384,49.0738248 98.1778457,48.6961896 97.6645055,47.9189636 C94.2246876,46.3645115 90.7848696,45.3062546 86.9019118,44.832015 C85.9498193,44.6958907 85.0635397,44.9022727 84.2430729,44.4587709 L84.4580615,44.8759261 C84.4097988,46.9441377 84.554587,49.1396915 84.3483734,51.0761699" id="Fill-83" fill="#FEFEFE"></path>
                    <path d="M108.621905,53.3613022 C109.09137,53.4710799 109.227383,54.0287506 109.543285,54.3624747 C111.157894,55.2231318 111.579096,56.9620104 113.000653,57.9368363 C113.799182,59.6098482 115.641942,60.8920516 115.707755,62.8021834 C117.633877,67.0703399 118.945747,71.5756162 119.077372,76.5946521 L118.906259,76.8581185 C119.09931,76.8581185 119.279199,76.7702964 119.428374,76.6649098 L125.82977,76.5463499 C125.408568,75.9272037 125.584069,75.0182445 125.474381,74.262974 C124.623201,64.378591 120.411179,55.9169268 113.799182,48.4564351 C112.575063,50.0987093 110.91658,51.6312059 109.380947,53.2076135 L108.621905,53.3613022 Z" id="Fill-85" fill="#FEFEFE"></path>
                </g>
            </g>
        </g>
    </g>
</svg>